<mxfile host="app.diagrams.net" modified="2020-12-15T20:41:44.529Z" agent="5.0 (Windows NT 10.0; WOW64) AppleWebKit/537.36 (KHTML, like Gecko) Chrome/87.0.4280.88 Safari/537.36" etag="0NG8V_z581iXNBrj6xsQ" version="14.0.1" type="github">
  <diagram id="4mz-KzC8vcX3A85lBdil" name="Page-1">
    <mxGraphModel dx="1422" dy="794" grid="1" gridSize="10" guides="1" tooltips="1" connect="1" arrows="1" fold="1" page="1" pageScale="1" pageWidth="850" pageHeight="1100" math="0" shadow="0">
      <root>
        <mxCell id="0" />
        <mxCell id="1" parent="0" />
        <mxCell id="jyDMVbrAUtdRNtExXl6P-5" value="" style="shape=image;verticalLabelPosition=bottom;labelBackgroundColor=#ffffff;verticalAlign=top;aspect=fixed;imageAspect=0;image=data:image/png,iVBORw0KGgoAAAANSUhEUgAABPMAAAKyCAYAAACwtJtdAAAgAElEQVR4Aey9TY7lOJBuGSuondQo95Tb6HXkampYk9hHj960gUYB5Q9fRJq7OcMkURL/eQQ4qCuRRuMxiiK/S3f/8cEBAQhAAAIQgAAEIAABCEAAAhCAAAQgAAEITEHgxxRe4iQEIAABCEAAAhCAAAQgAAEIQAACEIAABCDwgZhHJ4AABCAAAQhAAAIQgAAEIAABCEAAAhCAwCQEEPMmCRRuQgACEIAABCAAAQhAAAIQgAAEIACBkQn87//+74f9pH7adaUc7wgg5r3jR2kIQAACEIAABCAAAQhAAAIQgAAEILA9gTsi3Z2824MNACDmBVC4BAEIQAACEIAABCAAAQhAAAIQgAAEIHBN4Kkwp3JPy157tXYOxLy140vrIAABCEAAAhCAAAQgAAEIQAACEIBAFQIlxLgSNqo0bmCjiHkDBwfXIAABCEAAAhCAAAQgAAEIQAACEIDAiAQQ4fpFBTGvH3tqhgAEIAABCEAAAhCAAAQgAAEIQAAC2xNAGLzXBRDz7vEiNwQgAAEIQAACEIAABCAAAQhAAAIQ2JpADfGths1Vg4SYt2pkaRcEIAABCEAAAhCAAAQgAAEIQAACEChMANGtMNAH5hDzHkCjCAQgAAEIQAACEIAABCAAAQhAAAIQ2JFATTGvpu2VYoWYt1I0aQsEIAABCEAAAhCAAAQgAAEIQAACEKhIoKbgVtN2RSTNTSPmNUdOhRCAAAQgAAEIQAACEIAABCAAAQhAAAIQeEYAMe8ZN0pBAAIQgAAEIAABCEAAAhCAAAQgAAEIFCbA7rxroIh514zIAQEIQAACEIAABCAAAQhAAAIQgAAEINCAAGLeNWTEvGtG5IAABCAAAQhAAAIQgAAEIAABCEAAAhD4+PioLbbVtr9CEBHzVogibYAABCAAAQhAAAIQgAAEIAABCEAAAhDYggBi3hZhppEQgAAEIAABCEAAAhCAAAQgAAEIQGAOAuzOO48TYt45H+5CAAIQgAAEIAABCEAAAhCAAAQgAAEINCSAmHcOGzHvnA93IQABCEAAAhCAAAQgAAEIQAACEIAABCAwDAHEvGFCgSMQgAAEIAABCEAAAhCAAAQgAAEIQAACIsDuvON+gJh3zIY7EIBAQwL//PPPR87Pz58/G3pFVRCAAAQgAAEIQAACEIAABCDQgwBi3jF1xLxjNtyBAAQaEvjx48dHzs9ff/3V0CuqggAEIAABCEAAAhCAAAQgAIFeBBD0YvKIeTEXrkIAAo0J5Ah5yoOY1zgwVAcBCEAAAhCAAAQgAAEIQKATAcS8GDxiXsyFqxCAQEMCEugk1P39998f9mu0R2lDt6gKAhCAAAQgAAEIQAACEIAABCAwHAHEvOFCgkMQ2I+AF/P2az0thgAEIAABCEAAAhCAAAQgAIEjAuzO+5MMYt6fTLgCAQg0JmC/YqudebmH/2cZZ2W0w8/ynuXjHgQgAAEIQAACEIAABCAAAQiMRwAx78+YIOb9yYQrEIBAYwJPduZJpDMRUGLd0WG2z/IcleU6BCAAAQhAAAIQgAAEIAABCEBgNAKIeaNFBH8gsCEBE9y0M0+imz77nyMhzsopjQ6VM8Evus81CEAAAhCAAAQgAAEIQAACEBifALvzvscIMe87Dz5BAAKNCUjAk+AmQc6LbybC+dT+KYa5aGLe0a/nettWhhQCEIAABCAAAQhAAAIQgAAEIDAzAcS8maOH7xBYgIAJciba6bNEOKV2bveUpoKerilfel1oTMyL7i2AjiZAAAIQgAAEIAABCEAAAhDYhgC7875CjZj3xYIzCECgAwHtxpPopp8j0U3XTdCTcOcPu67y/vC7/I7s+vycQwACEIAABCAAAQhAAAIQgMC4BBDzvmKDmPfFgjMIQGBgAiboScyTUGeHiXb+mu5Z/lTks3KkEIAABCAAAQhAAAIQgAAEIACBGQkg5s0YNXyGwKYEjnbh2XXbgWdCnq7btU2R0WwIQAACEIAABCAAAQhAAAIQWIwAYt5iAaU5EFiZgIl2fredxDrt1tM9vztPn4/+lt7KjGgbBCAAAQhAAAIQgAAEIACBVQnwq7a/I4uYt2oPp10QmISAxDiJcDk76Ey082KemqmyEu/suv3qrX2eBAVuQgACEIAABCAAAQhAAAIQgAAELgkg5l0iIgMEIFCTgAl0Sq+OaGeeyph4p/sm7Hlx78ou9yEAAQhAAAIQgAAEIAABCEBgDgLszvv4QMybo6/iJQSWJeDFN/9rsmmDTbA7+tVZ7cLzYt5RvtQunyEAAQhAAAIQgAAEIAABCEBgHgKIeYh58/RWPIXAwgRsd57EuEjQM6HubLedF/vO8i2MkaZBAAIQgAAEIAABCEAAAhCAwAYE2Jm3QZBpIgRmIOAFPYlx0Y/yHB0m5lk5/l7eESmuQwACEIAABCAAAQhAAAIQmJvA7rvzEPPm7r94D4FlCOjXbf0OPBPllErEyxHnTBA8E/2WAUZDIAABCEAAAhCAAAQgAAEIQGBLAoh5W4adRkNgXAIS9bTLzv/oWs7hy+TkJw8EIAABCEAAAhCAAAQgAAEIzElg5915iHlz9lm8hgAEIAABCEAAAhCAAAQgAAEIQAAC2xJAzNs29DQcAhCAAAQgAAEIQAACEIAABCAAAQhAAALzEGBn3jyxwlMIQAACEIAABCAAAQhAAAIQgAAEIACBfwnsujsPMY9HAAIQgAAEIAABCEAAAhCAAAQgAAEIQGA6Aoh504UMhyEAAQhAAAIQgAAEIAABCEAAAhCAAAQgsBcBdubtFW9aCwEIQAACEIAABCAAAQhAAAIQgAAEIDAxAcS8iYOH6xCAAAQgAAEIQAACEIAABCAAAQhAYGcCO/6qLWLezj2etkMAAhCAAAQgAAEIQAACEIAABCAAAQhMRQAxb6pw4SwEIAABCEAAAhCAAAQgAAEIQAACEIDAzgQQ83aOPm2HAAQgAAEIQAACEIAABCAAAQhAAAKTE9jtV20R8ybvsLgPAQhAAAIQgAAEIAABCEAAAhCAAAR2JoCYt3P0aTsEIAABCEAAAhCAAAQgAAEIQAACEIAABAYmwM68gYODaxCAAAQgAAEIQAACEIAABCAAAQhAAALXBHbanYeYd90fyAEBCEAAAhCAAAQgAAEIQAACEIAABCAwMAHEvIGDg2sQgAAEIAABCEAAAhCAAAQgAAEIQAACENiVADvzdo087YYABCAAAQhAAAIQgAAEIAABCEAAAhCYjgBi3nQhw2EIQAACEIAABCAAAQhAAAIQgAAEIACBlMAuv2qLmJdGns8QgAAEIAABCEAAAhCAAAQgAAEIQAACEBiUAGLeoIHBLQhAAAIQgAAEIAABCEAAAhCAAAQgAIF7BHbYnYeYd69PkBsCEIAABCAAAQhAAAIQgAAEIAABCEBgUAKIeYMGBrcgAAEIlCDw8+fPj7/++uvjx48fHzrngAAEIAABCEAAAhCAAAQgAAEIjE6AnXmjRwj/IACBKgQk3knE8z8IelVQYxQCEIAABCAAAQhAAAIQgAAEChJAzCsIE1MQgMA8BLyI58/naQGeQgACEIAABCAAAQhAAAIQgEBEYPVftUXMi6LONQhAYGkC//zzz7cdeV7M0z0OCEAAAhCAAAQgAAEIQAACEJiXAGLevLHDcwhAAAIhAfs7eV7Es3Pd44AABCAAAQhAAAIQgAAEIAABCIxKgJ15o0YGvyAAgSoEznblmaDH7rwq6DEKAQhAAAIQgAAEIAABCECgGYGVd+ch5jXrRlQEAQiMQOBsV56JeX///Tf/3XaEYOEDBCAAAQhAAAIQgAAEIACBhwQQ8x6CoxgEIACBkQjk7MozQY/deSNFDl8gAAEIQAACEIAABCAAAQhAwAiwM89IkEIAAksT+Pnz50fOrjwT8/jbeUt3BxoHAQhAAAIQgAAEIAABCGxAYNXdeYh5G3RemggBCHz8+rVZE+pyUwmAHBCAAAQgAAEIQAACEIAABCAwJwHEvDnjhtcQgAAEfhHIFfDSfOCDAAQgAAEIQAACEIAABCAAAQiMRICdeSNFA18gAIEqBLTDLhXpcj+zO69KSDAKAQhAAAIQgAAEIAABCEAAAg8JIOY9BEcxCEBgHgK5wp3+i22Ud56W4ikEIAABCEAAAhCAAAQgAAEIeAIr/qotYp6PMOcQgMByBO78B9ujHXz8Z9vlugUNggAEIAABCEAAAhCAAAQgMC0BxLxpQ4fjEIBADoHoP9hKnIuuy14k/vGfbXNIkwcCEIAABCAAAQhAAAIQgMCYBFbbnYeYN2Y/wysIQKAAgUiY06/RagfekZjH7rwC4DEBAQhAAAIQgAAEIAABCEBgIAKIeQMFA1cgAAEIHBGQKBf9DTz7ldmzv40XiYCyJZscEIAABCAAAQhAAAIQgAAEIACBngTYmdeTPnVDAALVCEQ77LQbzwS5aGee3VN6dr+a0xiGAAQgAAEIQAACEIAABCAAgSoEVtqdh5hXpYtgFAIQ6EngSIzT7jo7znbmKU+0q8+LgWaHFAIQgAAEIAABCEAAAhCAAATGJ4CYN36M8BACENiYgMS8VKxLhbho551HdiQI6joHBCAAAQhAAAIQgAAEIAABCECgFwF25vUiT70QgEA1AqmQp89+V54qjvKkDkW781SOAwIQgAAEIAABCEAAAhCAAATmI7DK7jxWpfP1PTyGAAROCES78iIBLtqZF+26i0Q/+ycaJ25wCwIQgAAEIAABCEAAAhCAAAQGI4CYN1hAcAcCEICACETiW7or7yhfRDDanSchkAMCEIAABCAAAQhAAAIQgAAEINCDADvzelCnTghAoAoB7ZiLxLyosmhnXpRP1yKb7M47osV1CEAAAhCAAAQgAAEIQAACEKhJADGvJl1sQwACTQlEAt2R6BYJdEfORiIhu/OOaHEdAhCAAAQgAAEIQAACEIAABGoSQMyrSRfbEIBAMwJHglv0d/DkVCT8HeXV9Sj/kVDYrNFUBAEIQAACEIAABCAAAQhAAALbEUDM2y7kNBgC6xGQ2Bb9bbvob+VZ6+/szFOZI/tHAqDVQwoBCEAAAhCAAAQgAAEIQAACYxGY/R9hIOaN1Z/wBgIQeEBAgloqzmkn3ZnQFu20O6tatqIyZ3Wc2eMeBCAAAQhAAAIQgAAEIAABCEDgCQHEvCfUKAMBCAxFIBLZznblyflU/NPnqyPanXclGl7Z5D4EIAABCEAAAhCAAAQgAAEItCcw8+6869Vre57UCAEIQCCbQLQrL0eYiwTAq1127M7LDgsZIQABCEAAAhCAAAQgAAEIDE0AMW/o8OAcBCCwMoFoh93VrjzxiMrlcIp25+WIhzm2yQMBCEAAAhCAAAQgAAEIQAACELgiwM68K0LchwAEhiUQ/QfbXGEt2pmX29BICOQ/2+bSIx8EIAABCEAAAhCAAAQgAIExCMy6Ow8xb4z+gxcQgMADApEgJ6FNu+eufiJB7qqM3Y/KyhcOCEAAAhCAAAQgAAEIQAACEJiHAGLePLHCUwhAYAECEtYiUa3nNfnEAQEIQAACEIAABCAAAQhAAAIQqEmAnXk16WIbAhCoRgAxrxpaDEMAAhCAAAQgAAEIQAACENiGwIy78xDztumeNBQCaxFAzFsrnrQGAhCAAAQgAAEIQAACEIBADwKIeT2oUycEILAlgaN/ftHz12z5JxhbdkUaDQEIQAACEIAABCAAAQhMTAAxb+Lg4ToEIDAfgZ8/f35IQHvyE4l+T+xYGfnCAQEIQAACEIAABCAAAQhAAAIQqE2AX7OtTRj7EIDAkASi/4Q7pKM4BQEIQAACEIAABCAAAQhAAAJVCcy2Ow8xr2p3wDgEIDAqgWhn3qi+4hcEIAABCEAAAhCAAAQgAAEI1COAmFePLZYhAAEIFCPAzrxiKDEEAQhAAAIQgAAEIAABCEAAAg0JsDOvIWyqggAExiEQ7czj796NEx88gQAEIAABCEAAAhCAAAQg0JLATLvzEPNa9gzqggAEhiHAzrxhQoEjEIAABCAAAQhAAAIQgAAEuhNAzOseAhyAAAQgcE4g2pl3XoK7EIAABCAAAQhAAAIQgAAEILAqAcS8VSNLuyAAgWUIsDNvmVDSEAhAAAIQgAAEIAABCEAAAlsR4Ndstwo3jYUABIxAtDOPv5lndEghAAEIQAACEIAABCAAAQjsR2CW3XmIefv1TVoMAQh8fHywM49uAAEIQAACEIAABCAAAQhAAAKeAGKep8E5BCAAgcEIRDvzBnMRdyAAAQhAAAIQgAAEIAABCEDgXwIS2mqLbbXtlwomO/NKkcQOBCAwFQF25k0VLpyFAAQgAAEIQAACEIAABCBQXcybBTFi3iyRwk8IQKAogWhnHn8zryhijEEAAhCAAAQgAAEIQAACEChCoOWOuZZ1PYWDmPeUHOUgAIGpCbAzb+rw4TwEIAABCEAAAhCAAAQgsAmB1uJa6/qehBEx7wk1ykAAAtMTiHbmTd8oGgABCEAAAhCAAAQgAAEIQGBxArXFttr2S4QHMa8ERWxAAALTEWBn3nQhw2EIQAACEIAABCAAAQhAYDMCkbAWXdsMywdi3m4Rp70QgMAvAtHOPP5mHp0DAhCAAAQgAAEIQAACEIDAGAR6inY9686hj5iXQ4k8EIDAcgTYmbdcSGkQBCAAAQhAAAIQgAAEIACBIgQQ84pgxAgEIACBsgSinXlla8AaBCAAAQhAAAIQgAAEIAABCDwhcCWmXd1/UudMZdiZN1O08BUCEChGgJ15xVBiCAIQgAAEIAABCEAAAhCAQDECOUJdTp5iDg1oCDFvwKDgEgQgUJ9AtDOPv5lXnzs1QAACEIAABCAAAQhAAAIQOCIwkkg3ki8pL8S8lAifIQCBLQiwM2+LMNNICEAAAhCAAAQgAAEIQGBRAiOLbbWRI+bVJox9CEBgOALagRftzPvnn38+2J03XLi2cUh9z/pgmm4DgYZCAAIQgAAEIAABCGxL4K44dzf/E7At6njiF2LeE2qUgQAEpiVwJOR5cQ9Bb9rwTuv433//HQrM1i91nwMCEIAABCAAAQhAAAKrEngimj0pc5dfizru+qT8iHlPqFEGAhCYkoB+tTb69VoTTCy1fFM2EqenIqAdeDl9Un1T+ZSfAwIQgAAEIAABCEAAAhDYmwBi3t7xp/UQ2IaACXV3UoknHBCoRUDC3J3+aHkR9GpFBLsQgAAEIAABCEAAAj0IvNn99qZsbltb1JHri+VDzDMSpBCAwLIEcn611oSSNOVXbpftFt0bdvWrtWlftM/8ym330OEABCAAAQhAAAIQgEAhAm+Fsrflc5rRoo4cP3wexDxPg3MIQGA5Am+EPBNPEPSW6xbdG3Qk5Gk3qO7Zz9Gv4CLodQ8hDkAAAhCAAAQgAAEIvCQwokj2sknNiiPmNUM9RkW2QNSvaXH+96+/PwWHtTmYIPc2VT/hufktMsHhPYej/mj9TIyN81lexi+eS/pA+z4wxowOLyAAAQhAAAIQMAItRMEWdVh7clLEvBxKC+TRZP9oh8fRQpHrPx79PSu4wY0+QB+gD9AH6APr9gHNp9ixvcDkmCZAAAIQgEBXAiXFsZK2jqC0qOOo7ug6Yl5EZbFrEvJYVKy7qCC2xJY+QB+gD9AH6APt+wCC3mITZpoDAQhAAALNCPz3f/93s7pWrQgxb9XI/tsuTTTZkdd+gs+iCub0AfoAfYA+QB9Yuw/oV+E5IAABCEAAAhC4R+D//M//fPznf/7nvUKD5B5pdx5i3iCdopYb7MpbeyHBQpH40gfoA/QB+gB9oE8fYGderdkrdiEAAQhAYGUC/89/fXz8x3/8R/EmthDaWtSRCwYxL5fUpPkiMU/X7I+rk/7+I/NwWJfDnZ2p6gfRolg26CPr9pHWsY3G5ajf6ZryHvVhxnL6ZOu+u3N90XMoHhwQgAAEIAABCOQT+D//3/98/L///8fHf/3Xf32MJIzlt2CcnIh548SiiieaaKaLRCafVVBjdFAC0QIsfSbs81FeXeeAQEkC1ueuUvW9o37JrqCSEcEWBM4JRCI8z+A5M+5CAAIQgAAEcgmUEvZK2Tnzu0UdZ/XbPcQ8I7FoGk0+EfMWDTbNOiRwJIZcCSm6j5B3iJUbLwhEX7Tk9EfLwzj+Aj5FIfCAQPQe4Tl8AJIiEIAABCAAgRMCb4Wyt+VPXPu81aKOz8pOThDzTuCscAsxb4Uo0oYSBEwEuZuWqBsbEIgIRONzTv9UOQ4IQKAtgeh5ZWde2xhQGwQgAAEI7ENgFMFsZOKIeSNHp4Bv0eSTb5ILgMXEdASiXRVXwgmiyXRhnsphCQFXfTC6zxg+VZhxdhECzKcWCSTNgAAEIACBaQg8FfSelrsDpkUdV/4g5l0Rmvy+Fn3pYpCF4ORBxf3HBNT3c0Q95eE5eYyZgjcISNCLxul03NZn5WMn0A24ZIVAQQKRmMfzWBAwpiAAAQhAAAIHBEYQzlLXRvAJMS+NymKfo8knIsViQaY5twmcCXq6xwGB1gSuBD3G7dYRoT4IfCcQvTd4Lr8z4hMEIAABCECgFoERxLNabXtqFzHvKblJyiHmTRIo3GxOINr5xC6L5mGgQkcgEvQ0hnNAAAL9CUTzKd4Z/eOCBxCAAAQgAIGIQAvxr0UdUdvsGmKekVg0jSaffJO8aLBp1i0C0S6LWwbIDIHCBBDzCgPFHAQKEmA+VRAmpiAAAQhAAAIPCfQW0LzbvX1BzPPRWPA8Whwi5i0YaJp0mwA7824jo0BlAtF4zc68ytAxD4FMApGYx868THhkgwAEIAABCECgOAHEvOJIxzIYTT4R88aKEd70IcDOvD7cqfWYAGLeMRvuQKA3geidwXyqd1SoHwIQgAAEdiSQuyMuN98bhi3qOPIPMe+IzCLXEfMWCSTNKE4g2plXvBIMQuAGAcS8G7DICoHGBKL5FDvzGgeB6iAAAQhAAAL/Eugpovkg9PQDMc9HYsHzaPLJN8kLBpom3SYQ7bK4bYQCEChIADGvIExMQaAwAeZThYFiDgIQgAAEINCAQE+xrXbzEPNqE+5sP1ocIuZ1DgrVD0Eg2pnHLoshQrOtE9F4LQGBAwIQ6E8gEvN4Z/SPCx5AAAIQgMC+BHKEupw8bwm2qCPyETEvorLQtWjyiZi3UIBpymMC7Mx7jI6ClQgg5lUCi1kIFCAQvTOYTxUAiwkIQAACEIDACwK9hDTvci8fEPN8FBY8R8xbMKg0qQiBaGdeEcMYgcBDAoh5D8FRDAINCETzKXbmNQBPFRCAAAQgAAEIhAQQ80Is61yMJp98k7xOfGnJcwLRLovn1igJgfcEEPPeM8QCBGoRYD5Viyx2IQABCEAAAu8IXO2Mu7r/rvZ+pbuJefo28+gbTbuXk75F5+u4a8uXzT2P6sgtq3x3j2hxiJh3lyL5VyQQ7cx78oytyIY29SEQjdcSEDggAIH+BCIxj3dG/7jgAQQgAAEIQGAEAj0Ewy5inp8QpeA1MYoW2UfXZOuNOGW7c5TePY58Orse+Wo+nJWzeyp/Z/LoWXsbd9tKfgisRiB67lZrI+2ZiwBi3lzxwtu9CETvjGhOtxcVWgsBCEAAAhAYg0APMa13y4cT8wTERKc7qUSrJ4dNzp6Ut7J3/IwmfpHgdmUzV9CLbEc+PGFHGQjMTCB6xmZuD77PTwAxb/4Y0oJ1CUTzqdy52LpUaBkEIAABCEBgDgItxL4WdXjaXcU8iWHp4XfmaeKkz/rRIic9TydWqa2czybIRb5clTcxQH5E/qV+63N0eB/SMt6u5bN6j+z5OlJGKiubHBDYnUD6POnZ4IBATwIam218t1RjOAcEINCfAPOp/jHAAwhAAAIQgMDIBLYS844Wz7aIyRGd/OTqiSBnC/onC6Y3ZX0ntDZc+S/xzuoUoxw+0eIwp5z3j3MIrEjAxhmf5gjkK7KgTWMQiMbrJ++mMVqDFxBYi4DN1XhnrBVXWgMBCEAAAhCYlUCXrSg2IYrEKy2mbaKUKzqd2bsKjIljkS9XZc3Pt4utuz5YftV/JT4YG/NVaS7Xq/ZzHwIzE/DPkT0fM7cH3+cngJg3fwxpwboEoncG86l1403LIAABCEBgTgJnu+PO7pVqbYs6zNeuYp4W0NFhC+vcSZJNsJTePazsE0HuTVnvpwluuf7fETzNtjFVmsvV+8g5BFYj4J8JO1+tjbRnLgKIeXPFC2/3IhDNp66+UN2LEK2FAAQgAAEI9CfQUkyLWtuy/lhNi7wqeM0mRJF4dUeokkvKb6JaZO/K7TdlTQBQe94cd31Qm42hfDg7fD7zFzHvjBj3diFgz509F1fP0i5caGc/Aoh5/dhTMwSuCDCfuiLEfQhAAAIQgAAEWhI4V4IqeeInRFEVtri+Ep288Kcy+nz3sAW9fLp7vCnr6zIespd7+EXfWRmfL5frmT3uQWAVAvY8+PTJGLIKD9rRn0A0Xj95N/VvCR5AYD0CNlfjnbFebGkRBCAAAQisReBsd9zZvVIUWtQhX7uKeZF4lQp0JphZqkmUP7dJVWQrJxhm60l5q9tSbyu6drQo8+VyfFYev+g7KxNNPlWWAwK7E7Dnzp5VpRwQ6EnAj+vWL4/eGz39pG4I7Eggemcwn9qxJ9BmCEAAAhCYmUALoa1FHYpBl9WrF5iijmCLmJxUkyv9PN1RY5OzJwsmK5vjp/Ic1WE8ZC/38Iu+szJm2/vI5POMGPd2IeCfCTvfpe20c0wCfly3Pnn03hizBXgFgXUJRPOpp3PPdSnRMghAAAIQgAAEWhHoKuZF4pXfmaf7mjz5Hy+gaeHzdiJl9iJfroJgi63IT++znR/5+sQHv+g781N1m5+WIuadEePeLgTsubPnQikHBHoS8OO69UuN4RwQgEB/Asyn+scADyAAAQhAAAK5BM52x53dy7V/la9FHV1Wr35CFEGwRUwkfumaLcJLiFJm68mC6U1Z327jIQqMWQIAACAASURBVHu5h1/0nZXx+YxrCW5ndXIPAjMQsOfBp9GYM0Nb8HENAtF4/eTdtAYNWgGBsQjYXI13xlhxwRsIQAACEIDAXQIthLYWdXQV8yLxSotpmygdiU4moinfUZ7cgJqtyJcrG+bn28XWEx/8ou/Mz2jy+ZbZWX3cg8AsBOy5s+dYKQcEehLw47r1y7fvl57toW4IrEQgemcwn1opwrQFAhCAAARWI9BCUOvJrMvq1QtMUeNtEXM0SfK785T3zW4am5w9WTC9KevbbTxkL+fwgudV2822MVV6xDWnbvJAYBUC/pmw81XaRjvmJICYN2fc8HoPAtF86moOtgcZWgkBCEAAAhAYk0BvMa92/V3FvEi88kLVmeiUm++qW5kgF/lyVdYEgCdCoLd91we/4LuaSEaTzzOu3i/OIbAyAXvu7DlWygGBngT82G798u37pWd7qBsCKxFgPrVSNGkLBCAAAQjsQOBMTDu7V4pN7Tq6rF79hCgCZYuYK9HJL8afLnjMxpPyb8r6dhsP2cs5jI/KXYl50eLwimuOD+SBwOwE7Dny6dXzNHub8X9sAtF4/eTdNHYr8Q4CcxKwuRrvjDnjh9cQgAAEIACB1Qh0FfMi8erujjs/uXoSHBPkIl+u7NmE7u1iK9cH1ePbmyPK+fzmb065q7ZzHwKzE7Dnzp4LpRwQ6EkAMa8nfeqGwDmB6J3BfOqcGXchAAEIQAACvQmc7Y47u1fK75p1dFm9eoEpgmSL65xJkl/8yO7dw0/OdH72k9q/U9bbTXf/eB4+X3puXJSmvhy129u28jlcj+xxHQKrELDnwaertI12zEnAv8+sX+aO9XO2GK8hMA+BaD6VzufmaQ2eQgACEIAABPYgcCamnd0rRadmHcOJeXd35gmyF9XuTqx8WVs8naU+qGf5zu6lPt7xQXnvLO6iySdino8i57sSiJ67XVnQ7jEIIOaNEQe8gEBEgPlURIVrEIAABCAAAQj0ItBFzNOCRZOiI1HK7qWi1xEky6/0rlBlZU0k0+ejc93zx52y3mbaLuPh80Tnvu7c82hxeJdRbl3kg8BMBCLBPX02Z2oPvs5PIBqv0/fO/K2kBRCYk4CexfS9wTtjzljiNQQgAAEIQMAI1Nw5V7uOLmKeNYq0PoFo8omYV587NYxPQIJ5ujAb32s8XJkAYt7K0aVtsxOI3hnMp2aPKv5DAAIQgMAOBM4Eu7N7o7NBzBs9Qi/9Q8x7CZDiyxJIhTx95oBATwKIeT3pUzcEzglE8yl25p0z4y4EIAABCEBgBAIzC3Zn/Fi9ntFZ4F40+eSb5AUCSxNeE4h2Wbw2igEIvCCAmPcCHkUhUJkA86nKgDEPAQhAAAIQqETgSsy7ul/CrRp1IOaViMzANqLFIWLewAHDtWYEop157LJohp+KAgLReC0BgQMCEOhPIBLzeGf0jwseQAACEIAABK4I1BDSrupM79fwATEvpbzY52jyiZi3WJBpziMC7Mx7hI1CFQkg5lWEi2kIvCQQvTOYT72ESnEIQAACEIAABB4TQMx7jG6Ogoh5c8QJL9sTiHbmtfeCGiHwRQAx74sFZxAYjUA0n2Jn3mhRwh8IQAACEIDAMwI1ds6lnpSuAzEvJbzY52jyyTfJiwWZ5jwiEO2yeGSIQhAoRAAxrxBIzECgAgHmUxWgYhICEIAABCCwEQHEvI2CXaKp0eIQMa8EWWzMTiDamccui9mjOrf/0XgtAYEDAhDoTyAS83hn9I8LHkAAAhCAAARyCOQIaTl5cupqlYedea1Id6onmnwi5nUKBtUORYCdeUOFA2c+Pj4Q8+gGEBiXQPTOYD41brzwDAIQgAAEIOAJ5Ah1OXm8zSfnJetAzHsSgYnKIOZNFCxcbUog2pnX1AEqg0BCADEvAcJHCAxEIJpPsTNvoADhCgQgAAEIQOCEQEkR7aSay1sl/UDMu8Q9d4Zo8sk3yXPHFO/LEIh2WZSxjBUIPCOAmPeMG6Ug0IIA86kWlKkDAhCAAAQgUIdAroiWm6+Ol/esIubd4zVd7mhxiJg3XRhxuAKBaGceuywqgMZkNoFovJaAwAEBCPQnEIl5vDP6xwUPIAABCEAAAiUJIOaVpImtVwSiySdi3iukFF6EADvzFgnkQs1AzFsomDRlOQLRO4P51HJhpkEQgAAEIACBaQiwM2+aUD1zFDHvGTdKrU8g2pm3fqtp4cgEEPNGjg6+7U4gmk+xM2/3XkH7IQABCEBgRQKz7M5DzFux97k2RZNPvkl2gDjdlkC0y2JbGDR8CAKIeUOEAScgEBJgPhVi4SIEIAABCEBgGgK5Il1uvjcNL1EHYt6bCExQNlocIuZNEDhcrE4g2pnHLovq2KnghEA0XktA4IAABPoTiMQ83hn944IHEIAABCAAgVwCJQS03Lpa5EPMa0G5Yx3R5BMxr2NAqHoYAuzMGyYUOPIvAcQ8ugIExiUQvTOYT40bLzyDAAQgAAEIpATuiHl38qb15H5+WwdiXi7pSfMh5k0aONyuTiDamVe9UiqAwAkBxLwTONyCQGcC0XyKnXmdg0L1EIAABCAAgRsE7ohnd/LecOFb1rd1IOZ9w7neh2jyyTfJ68WZFt0nEO2yuG+FEhAoRwAxrxxLLEGgNAHmU6WJYg8CEIAABCDQlsBb8aytt9e1IeZdM5o6R7Q4RMybOqQ4X4hAtDOPXRaF4GLmEYFovJaAwAEBCPQnEIl5vDP6xwUPIAABCEAAArUItBD/3tSBmFcr8oPYjSafiHmDBAc3uhJgZ15X/FQeEEDMC6BwCQKDEIjeGcynBgkObkAAAhCAAAQqEHgjtOW686YOxLxcypPmQ8ybNHC4XZ1AtDOveqVUAIETAoh5J3C4BYHOBKL5FDvzOgeF6iEAAQhAAAIbE0DMWzz40eKQb5IXDzrNyyIQ7bLIKkgmCFQiEI3XEhA4IACB/gQiMY/5VP+44AEEIAABCECgJoE3O+dy/XpaB2JeLuGX+TTh6/ETTT51rYcvTHpfdiKKFyUQ7cxjl0VRxBi7SUBjZNovEfNuQiQ7BCoRiOZTvDMqwcYsBCAAAQhAYBACT4W2O+4/rQMx7w7lh3mjCWC6YNvlswmJD1FSDALFCLAzrxhKDBUigJhXCCRmIFCBQPTO4EvKCqAxCQEIQAACEIBAFgHEvCxMzzMh5P34Y6eJhEsmwM/7FCXLEIgE9DKWsQKBZwQQ855xoxQEWhCI5nPszGtBnjogAAEIQAACfQk83Tl3x+sndSDm3SH8IG/0TW4kIux2TZNiDgj0JBA9mz39oW4IIObRByAwLoFIzOOLyXHjhWcQgAAEIACBUgSeCG13635SB2LeXco380eCwW7CXdReJsA3OxLZixOI+iW7LIpjxuANAoh5N2CRFQKNCURiHu+MxkGgOghAAAIQgAAEPgkg5n2iqHMSTf5MRJDQp/sr/pyJmAh5dfoaVu8RiProPQvkhkBZAoh5ZXliDQIlCUTvDOYzJQljCwIQgAAEIFCfwJMdcPLqabk7LbpbB2LeHboP80YLNAl6mhiu+K2u2hRNetVmJr4POxHFihMwUd2nxSvBIARuEIjeFfqyhwMCEOhPIPpydsU5XH/SeAABCEAAAhCoR+CuYGaePC1n5WukiHk1qAY2o0WaiQgrTQbVFmtXmiLkBR2DS90IRIJzN2eoGAIfH7++7EjHTcQ8ugYExiAQiXnMa8aIDV5AAAIQgAAEcgmMKMp53+/4h5jnyVU+X13QQ8ir3IEwX5RAKpro80rCelFYGGtCIHpHIOY1QU8lELgkEIl5vDMusZEBAhCAAAQgMBSBO2JZ6vibsqmto8936kDMO6JY6Xo0GTRRYeZJIUJepQ6D2WoE2JlXDS2GHxJAzHsIjmIQaEAgemewM68BeKqAAAQgAAEIFCRwRywrWG0VU4h5VbCeG40WbDMLegh55/Hm7pgE7Jnz6Zie4tUuBKJ3Azvzdok+7RydQPRl7Mxfwo7OG/8gAAEIQAACNQi8FfPels9pU24diHk5NCvkiSaFJirMNDlEyKvQOTDZhEC0y6JJxVQCgQMCiHkHYLgMgQEIRPM2duYNEBhcgAAEIAABCNwgkCuUHZl8W/7Irr+eWwdinqfW+DxauM0k6CHkNe4wVFeUgD1rPp1JSC8KA2NDEIjeCezMGyI0OAGBj0jM451Bx4AABCAAAQjMRSBXKJuhVYh5naMUTQ5NXBh5koiQ17njUP1rAuzMe40QA4UJIOYVBoo5CBQkEL0z2JlXEDCmIAABCEAAAg0IlBDzSti4ampOHYh5VxQb3I8WcCMLegh5DToFVVQnYM+YT6tXSgUQOCEQvQvYmXcCjFsQaEgg+vJ15C9dG6KhKghAAAIQgMA0BHJEsqvGlLBRog7EvCuKje5Hk0QTGUaaLCLkNeoQVFOdQLTLonqlVACBEwKIeSdwuAWBzgSieRo78zoHheohAAEIQAACNwm0EOJuuvQ4O2LeY3TlC0YLuZEEPYS88jHHYj8C9mz5dCThvB8Zau5FIHoHsDOvVzSoFwLfCURiHu+M74z4BAEIQAACEBidQCkxr5SdM15XdSDmndHrcC9azJnY0HPSiJDXoTNQZVUC7MyrihfjDwhE4z9i3gOQFIFABQLRO0PPLAcEIAABCEAAAvMQuBLIcltSys5ZfVd1IOad0et0L1rQ9RT0Sgl5NhFW+uTwfjCBfkKQMp6APVM+9fc5h0BrAtHYj5jXOgrUB4GYADvzYi5chQAEIAABCMxE4Eogm6ktiHmDRiuaNJro0HKHnhfQrH5L7whqaXueCHpWr6V36h80zLjVkYCJy9aflHJAoCcBxLye9KkbAucE0nmM3hnMQ86ZcRcCEIAABCAwGoGSYl5JW0eczupg9XpEbYDr0cLOhIcWgl4pIU8oo0nwXUHP2u5TJtIDdNRJXfD9yM5bPFeT4sLtBgSiMV9jJwcEINCfQDSP4Z3RPy54AAEIQAACELhD4Ewcu2NHeUvaOqr7rA7EvCNqg1yPFncthIeSQp5QRpNgteOOoGftTlMEvUE662RusDNvsoBt4G403iPmbRB4mjgFgeidwfxjitDhJAQgAAEIQOCTwJk49plpoJMzfxHzBgrUkSvRAs8ErRrfCpcW8qxd0UT4jqBXyy/zj3QvAvYM+XQvArR2NALRWI+YN1qU8GdXAtGXkjXmYLvypd0QgAAEIACBFgTOxLEn9Ze2d8cHxLw7tDrmjSaRJkKUnEzWFszeCnrRYtc48A15xw46YdVRX5ywGbi8EIFofEPMWyjANGVqAtE8jHnH1CHFeQhAAAIQ2JBAafGttL0oJEd1IOZFtAa9Fi30TMgqIejVFvIMaySiqB26nnOccWBinUOQPCJgz45PSzxH0IXAUwLR2IaY95Qm5SBQlkAk5vHOKMsYaxCAAAQgAIHaBI6Esdr1vrF/5DNi3huqHcpGiz0TI95MKs/s1hDI3gp6rYTHDiGmykYEoj7YqGqqgUBIIBqHEfNCVFyEQHMC0TujxvyoecOoEAIQgAAEILARgSNh7A2CGjZz/EHMy6E0WJ5owfdG0OsljEUTY7VD13OOXn7n+Eae8QnYM+PT8b3Gw5UJRGM7Yt7KEadtMxFgZ95M0cJXCEAAAhCAQEyghvBWw2bqfVQHYl5KaZLP0aLPRIk7O/R6C2JvBb0zDrrHAYEjAlHfO8rLdQi0IBCNZ4h5LchTBwSuCURiHvOMa27kgAAEIAABCEDgPQHEvPcMh7IQLfzuCHq9hTyDGYkqagc79IwQaQ0C9qz49I4QXsMnbO5NIBrTEfP27hO0fhwCkZjHO2Oc+OAJBCAAAQhAIIdAJIrllLvKU8uu1RvZZ2ee0Zk0jSaXJk6cTTJHEfIM+1tBL1oEGwe+OTfKpJ5A1Of8fc4h0JpANI4h5rWOAvVBICYQvTOYX8SsuAoBCEAAAhAYlUAkipXwtZbdM98Q887oTHIvWgCakBUJemf5e05Mo4my2qHrOcdoAmWOz+TpR8CeEZ/284aaIfDxEY3NiHn0DAiMQSD68jSaY43hLV5AAAIQgAAEIBAR6CG6RX6UuIaYV4LiADaiRaCJFH6yObrg9VbQO+PQU6gcoIvgQkIg6mtJFj5CoCmBaPxCzGsaAiqDwCGBSMxjXnGIixsQgAAEIACBIQnMLOalviPmDdnFnjkVLQS9oDe6kGetjkQWtYMdekaItAQBezZ86oXvEnVgAwJ3CERjOGLeHYLkhUA9ApGYxzujHm8sQwACEIAABGoQSAWxknXUtC0/U/uIeSWjd2JLE74WP0dCmBcs0nNNUFv4dmfSe9SOXEEvWhRbu/km/aSjbnQr6mMbNZ+mDkggGrcQ8wYMFC5tSSB6ZzCf2LIr0GgIQAACEJiYQCqIlWxKTdvyM7WPmFcyege2om9zTVjaLdXEN3fyG02cxau3oGdtuCNOHnQNLnckED17Hd2hagjwN/PoAxAYmEA0l2MeMHDAcA0CEIAABCAQEEgFsSDLNJcQ8yqHKpr8RSLCbtdaCXqaaB+xzfXBdxEfz1xR0ZfnfBwCkVg8jnd4siMBjUnpeKUxhwMCEOhPwL//7Tl9Mo/o3xI8gAAEIAABCEBgVgJejETMqxzFSDCwSeDO6Z0F6hHDXDGtlKAXTeT5Vr7yA1TRfPT8Ec+KwDF9SQAx7xIRGSDQjQBzgG7oqRgCEIAABCBQjIAXw4oZdYZa2kfMc+BrnB4JUZGQsNO1u99mH3HMFfSiRbLxzvUl8gHxp8ZT08ZmFM82NVMLBGIC0Th154uP2CpXIQCBEgSid0bu/KFE/diAAAQgAAEIQOA9gZZi23tv/7Tg/UfM+5NP8StajOlHE8HWaTT57OGHb7fOnxxRWyTI6frVcbY7TzZyJuRR/Yh5V+THvW9irk/H9RbPdiCAmLdDlGnjrAQ0d/HvC50zB5g1mvgNAQhAAAK7EvBiWA0Gte17nxHzPI0Fz6PFYY5wNSqKSFDThPpK0Is4pJPyKy5R3UzkR+0p135F8bwudS+H+pQWgD7153bvrO/pnv3cq/197jO/nljX8yKbvt12bqndv7LvbV3lLXW/dp1qezouiQsHBCDQn4CexfT5LD1G9m8lHkAAAhCAAATWJtBSbKtNEjGvNuHO9lecfEYizJWgp0V4OgmPPp9NzKN6ZZdjTgJR/EvGM7fPmR96VqP6rd8pbXXoOVB9peuMxCprf5qq7jMhy9uKuNVgVbtOb994nDGo0UZsQgACMYFoPtVq7Ik94ioEIAABCEAAAncJIObdJUb+bgSiyacWjLMfWujbYtenR+JDtEj25fz5EZ+oTiby8/akKJ6lW+P7Ve556oP5edS30/wlPteq885zaLyO2u1tlWhzjo3adXr71n7EvJzIkAcC9QnYuGjPplI9sxwQgAAEIAABCMxDoIWYV7sOs8/OvHn63SNPo8XhKpPPaGKtyXW0+Jfo5ifgV+cRo6g+xLxH3XKIQlEfKO2Y1RH1J6tLfcj3rTSvCfJRvzYbpVPzp3SdapsxOXt2fD7lH0XQ8n6d+f80Ht6+cRql7U/bRDkIrELAxmJ7NpXWGAdW4UU7IAABCEAAArsSMLGtVvvNPmJeLcKD2I0mn1owrnKY6OAn1zpPRYijRbIm4mlZ+5xyiupiIj9vT4riWbI1vm+lfSmtR3m9P/6+XVfa6qhVp38Or9ri88qfEZ4179OV/0/ue/s2DiHmPSFJGQiUJ7D6fKo8MSxCAAIQgAAE9iRgYlvt1iPm1Sbc2f4Ok08THmzxa6kXP7ywYvdtkRzdszxaXNsR1TOCwGD+kd4jYDH2ael4mm3fj4689EKOz2PPsO/Pyqvrlub4rTwqY+UinyyP9XWllv+oDvPBUu97eq48xuTIni/j88sPf5iv6XWfR+fml7UjvX/02fJ7+96fI/91/Wmd3r5x8vUf+cp1CECgPgE9i/ZcWno0DtT3hhogAAEIQAACEBiVQG0xz+wj5o3aAwr5FU0+tWBc7TDxwSbYlpoAogm3XbPUL5KjRbTlM15RHUzk5+1JUTxLtybtQ2f2fR/0+cxPpepv9tlsK7V7vpw/1/2onJ4B34e9D96+zn0+2VbeyKau+WfL++Ht++tn5+aH7HofvC1/3WzJhyP/VPboiMrJjsr4OqPyUVmLz1mdZsvbt3YfsbQypBCAQBsC0XiS81y38Y5aIAABCEAAAhDYhQBi3iaRjhaHq04+o4m2X0jb4thS5feHBAG7l6a6F9mPRARvk/NxCaQx1ufSh9WR88xJtLH83g9/PeqDVkb3ov54VsbKWrlovEjzyLezfJY/EqF8OavTtzU6Vz6z6Tn666ktz8zKpqm3ZfVelfMs0zr9vbQu+xzVaXUr9XysTMTRl+EcAhBoQyAaH9JxoI0n1AIBCEAAAhCAAAQ+PsqvXqE6FIFo8nm1oByqATedyVlQny2So8W05Y9SJvI3AzRQ9qivlHRPfcP6zNUz5/ud/PJH6qe3pTr8/bOyvpzse/+OyqXXr8rpvh9z0jp9O30bz869n97ekS1fv87Tw/OSbTu8vbScPvtyiqs/7tTpy6Xn3gfrO6kvaRk+QwACbQj459yeTz8mtfGCWiAAAQhAAAIQgMBvAt9XJFBZjsCOk8900W2T7jQ9WiR78SAtk372YsBynWfxBqWx1OfS8bQ61Ne06Dv6sXyRD/4ZjhaO8tn3eQubv6770XFk2+xF5XyZI17WHuX1eeS/3fPXI9/8NSvj239ky3xXmehQvak9XfPtuiqn8ua/UqtTNqLD5/FtSPP6NpmPRzbTsnyGAATqEvBjhD2fNg7UrRnrEIAABCAAAQjUIKBfV7Wf0vbtV2FL2/X24tWOz8H51ASiyefZYnLqxjrno3bb5NvSs0WyJuiW7yxlIu+gT3ZqAoyPb+kmeNs551GfND+VHh3W330eK6d6j/qprlu+qKy/prr9cxH5av6ZP6rbjzderLK8V6mv07fD27Lr/pqv19ehvN4/3fPlcttlNn1ZuxalOfl8HusvZ/5E9XANAhCoQ8DGSns20/GtTq1YhQAEIAABCECgJYFSIlwpO2dtR8w7o7PAvWhxqGuzHlqIa0Kd8+Mn3EfnR3b8Yv+orK6biDArz539juJamkdUR3RN/fCoL1lfVJ6jw/LIth127ayc8kb5VEa2orLm/9U4Yvl8u/x45K+bz1GqfGbL1+mvmy1vP7Jl19J83pbliVJfLqpTvM5+rB2RbV3z9i2v4sMBAQj0J2BjpT2bSm0c6O8dHkAAAhCAAAQgUJLAWzHubfmrtsj+18rvKjf3pyQQTT61YJzx8AtuP5nuec5Efsae9NtnE6x8/ynZGt9f9cxZXzlKj+o2P5UeHfac+zzRtah8ZD+6prJpmyJ7Z/m8WHVUNrpuMfJjV2TLXzPOkT2fL/X3TjmV9bbMz6s08unIluLIAQEI9CdgY6p/vvX8c0AAAhCAAAQgsCaBN4Lcm7I5NBHzcihNnmelyaefQI9yfrbwn7zrLO9+1IdKx9PqeLPgs2fYC3VpcCyP6rMjumb3fGr5vP3ompXJaZM4Wj7P1Atf/rrZjlIrI/98Gbuueuy6vxbZsmtpPv/ZbFlen0b5/DX5mPPjbfpzb8v4KRYcEIBAfwI2Ltqz6cee/t7hAQQgAAEIQAACIxFAzBspGpP6Ek0+tWCc8fAT6FHOzxb+MzLeyWeJLmk/Kt1+s//mmTM/lR4d9pz7PNG1qHxkP7qmsurv1qarvm/5fNu9WBX5El2L7Cift2W++GuRLbuW5vPtsjxRGuVLbUXlcq95W9ZuxZEDAhDoT8DGRXs2leqZ5YAABCAAAQhAYG0CtYW5J/TYmfeE2mRlosXhrJNPEyf8RLrnOYvsyR6GxN2o7yRZXn+0Ot48c9bvvVCXOmZ5VJ8d/tpR/bpuC1RvP7pmdq1NymMimt2z1Nft86g+K++vW7k09fll0x9eWDNbZ/mtrPJa+4zXk3J36rS6r1Lvh3FK231lg/sQgEAdAn5cs+fTxoE6NWIVAhCAAAQgAIFRCIwm6CHmjdIzKvoRTT61YJz10MR5lJ9aDNU+iQ1nYslV3Yq7yiMEHJPygo4tzI5z37+jOJrdN8+c+an06LDn3OexfiQf/HVvw8opj/LbcVanF5x8GSur1Nqd9j9f1uc/Ojc7kf9HtnybIrtHcblTTn75w3il130e+at8UVssn2+TtT1laHlJIQCBdwTsebT0ypofI+z51DPLAQEIQAACEIAABFoTQMxrTbxDfUw+O0B/WaUtEiw9EkyOqkljjhgQkzK+Pr3LOrb8ddVsv1nwWTzPRCDLo/r8oTLmg/UDa6MXjlLbVs6uWxnZ1rnZVKrPdl+pldW9tN2+zrSc2VYqX70d8923LbVl9/x12fC+6Tz1PSqnPKrTl/XldG73VN7XaWV1XXnO6rS6LU3teFuWhxQCEDgnoGdOz5IfQ3wJfz19rnXv6NCYkOb348BROa5DAAIQgAAEILAGgZF25yHmrdGnTlsRTT41yeUYk0C68NfCwQsSOV5HMdc1ju8EogXd9xzvP9nC780zZ37mLDKjPFbefEnTqEzUh/yiNeqnqd2ozbqW5rv6fNR3vS3vm6IW+Z/Wk5ZROW8zza/PnmXaO3LqVPmoXrMV1X/UfitDCgEIfBE4Gpvs2fPPmK7pR8+YUnvm9Tl6Tn0eyyt7HBCAAAQgAAEI7EEAMW+POA/TSj9xZfI5TFhOHbE4+VSLiGhxERk6EhUQBb7T8nzt/HuOd5/8ovLNgs8WkEqPDh/zKI/umx1rqz7r+lG/8jZVJs2nz2ke5dO1o/ZG45H541PzTbaODm8r9U1ldP/Ivyi/1ROVszZd1al8UZ3WnrN6zWfPwXiab6QQgMA5AXt+7Jnzz6Su6efoufLPrp719PD3rZ6rZzq1wWcIQAACEIAABOYlgJg3b+ym9DyafEaT1Ckbt6jTUcy0cNAiJGfhC2laQQAAIABJREFUoDy2YLEFh6WyzfGbQMSoNBs9a/rJidtR3Sp7ZcPynD3bPs+VPfNF+ezHrqWp3bc0ve8/pz5YmTRVvpzDyp3ltTxKc+3Kni/n7dt1fy09tzyW5tar/PasWsozm9LlMwRiAvb8RO9Ku6fnSudHh+WTjfSI3s1nttLyfIYABCAAAQhAAAKlCPBrtqVIDmyHyefAwTlxLYqbFiHRIuXIjIkBaYo48JtYykWfc0WXI+Zch8AbAiYk+L7J8/qGKGV3ImBf0ERCnMZ2e67OxvmzfNF7+czWTuxpKwQgAAEIQGAXAqPszkPM26DHRZNPvkmeI/BR7HIWI9Y6LTJscWPlLEUg+AjZGDtSCPQggJjXgzp1rkLA3pm1xLzofcp8apXeQzsgAAEIQAACeQQQ8/I4kasAgWhxyOSzANhGJmxxYiKcpVpU5OwIQNA7DpSx9Olxbu5AoD6BaLxGeK/PnRrWIGDvy1pintn374yc9/AadGkFBCAAAQhAAAIigJhHP2hGIJp8IuY1w1+koiiGtpjIWUgg6MVhiHZZxDm5CoE2BBDz2nCmljUJ2JjeUsxjPrVmX6JVEIAABCAAgSMCiHlHZLhenEAkBDH5LI65usEojhL0tGhB0HuG3wRRn+awfFYbpSBwTQAx75oROSBwRMB/cZXOc0zos/fmkQ3Lp3duekTvYd4ZKSU+QwACEIAABNYmgJi3dnyHal00+UwnuUM5jDOHBKJYmhCVs6DwCx0rZ2m0cDl0ZJEbtmgzBko5INCTAGJeT/rUvQIBP67r3H40vus9Z+9RXU8PXzaaJ/n79t6I8qV2+QwBCEAAAhCAAARKE5CoyOq1NNXB7EWLQyafgwXphju2ELGFhKVaZMws6Mn31j/GzqetffD13egGZF2UQDRe7yi0LxpemtWIQCS62XMUPWP+HaDzozlS9P7VGM4BAQhAAAIQgAAEWhNAzGtNvEN90eTzaKLawT2qfEAgiqktRnIWFsoTLXZkwxY8D9x6VER98cgXa9MuqThw7E0gEhpaP5N7R4DWr0JAz43/8e06eu9Yfp/Xn+t++j5iPuUJcQ4BCEAAAhCAQCsCiHmtSHesh8lnR/gVq47iqkWGBKFZBD1EvB9/LAwR9Co+NBOYRsybIEi4uAwBPW/+56ph0Xs35317ZZf7EIAABCAAAQjMQWCUv5cnWoh5c/SZV15Gk0++SX6FdJjCUWxt10DOAqPnDj3Vbb6Sfhf1cmI3TCfEkaIEEPOK4sQYBIoSiL6AYj5VFDHGIAABCEAAAkMTQMwbOjzrORctDpl8rhPnI0Evd4eeSByJabJd60DM+y7g+Rgg5tXqdePbjcbrms/h+ETwEALjEIjet4zX48QHTyAAAQhAAAK1CSDm1SaM/W8EosknYt43RNN/iGJs4lDOQkN5oh0HsvFGSJBd+4kgW72qu9WPcclJW/nk6xETjn0JIObtG3taPj6B6F3LfGr8uOEhBCAAAQhAoBQBxLxSJLGTRYDJZxam6TNFcZZgJaEoRyAyYS0SuZ4Keqrb7OX4UDsIkVBi/kXp03bXbgf21yUQ9VH64brxpmVzEYjesyO82+aiiLcQgAAEIAABCJQi8KOUIeyMSSCafPJN8pixeutVFGsTqXIWHKUEvciOhL2exxkbPQ9eeDRmSlWOAwKtCCDmtSJNPRC4TyB6TzCfus+REhCAAAQgAAEIvCfAP8B4z3B4C9HikMnn8GF77OCRaKVFSCtBT/V4QUznPcW8Iybyy5hEAqS1AUHvcXek4E0C0XhN/7sJkewQqEQgepfYO6RSlZiFAAQgAAEIQGAQAiP9iq2QIOYN0jFquhFNPhHzahLvbzuKuQlTOQuPaPeBlc8RFlSH5bc0p1wNcndZHLW9l/81mGBzXAKIeePGBs8gEL1PmE/RLyAAAQhAAAIQ6EEAMa8H9cZ1MvlsDHyQ6qK4m7B2JegdCVpW/krYisS8HjvzImFEbZAvZwyO2n/V7kFCjxsTE4j6LP1u4oDi+lIEovfq2btkqcbTGAhAAAIQgMDmBNiZt3kH6NH8aPLJN8k9ItG+zij2b8QsE/OUngkMkZh3lr8GmaO2y/erxZfuI+jViAo2rwgg5l0R4j4E+hGI3gvMp/rFg5ohAAEIQAACIxKQ6NdC+GNn3ojRL+xTtDhk8lkY8sDmjkSts91p0YLFC3l2fiTQRWKebLY6jtqcI+SZjwh6RoK0JYFovD56zlr6RV0QgMDHry+x7P1n6dWXQ3CDAAQgAAEIQGAfAi1EPKOJmGckFk4jYQMxb+GAB02L+sDZQiRXzJONSGiIxLwoX+Dq60t323pV4RGLluLklY/cX4cAYt46saQl6xGI3i/Mp9aLMy2CAAQgAAEIpASuRLqr+6m9Ep8R80pQHNwGk8/BA9TIvagfHAl6kYB1Z6daJOa1EL8iIURtVN1vdk9EPI6EzEbhpJpFCUR9WM8uBwQg0J9A9B59827p3yI8gAAEIAABCEAgh8CZWHd2L8f20zyIeU/JTVQumnzyTfJEASzoatQXIrErEq9swWICYJp6wSES8/z9gk36NJXbts8CN07UnogJgt4NiGTNIoCYl4WJTBDoQiB6DzCf6hIKKoUABCAAAQg0JdBLsDtrJGLeGZ1F7kWLQyafiwT3QTOORC8JUybYRQsWu5cjbClPKvbJZq0j6uNWv/ldou6IC4JeCbLYMAJRX64thFvdpBCAwDmB6P1Z8h1zXjt3IQABCEAAAhAYjUBPkQ8xb7TeUMGfaPKJmFcB9EQmoz4hUUpi1ZFY55t3lMeELd03Mc3SWoLEUVtUb+lF1lW7PSPOIfCEAGLeE2qUgUAbAtH7hvlUG/bUAgEIQAACEOhFoKdgd9ZmxLwzOovcY/K5SCALNyPqFxLAjnafpcLYmbAV2dC10sdRG2oIeeb7WbvlDwcE3hBAzHtDj7KrE7DxV+8T/aTvpdrtj945rX2o3UbsQwACEIAABCDwnQBi3ncefGpIIJp88k1ywwAMXFXUN2wnXZpGCxZbWKV5o8+lha4z3yNfS4chEizV7tLtLO039sYmgJg3dnzwrh+Bo/dNi/HeWh2N+8ynjA4pBCAAAQhAYE0CkZgXXWvdenbmtSbeob5occjks0MgBq0y6h+RGHfmfrTASW0oT6njyGfV0Xthh6BXKsp72on6NgLxnn2BVn8ncPae0b0W85roS6SW75zvRPgEAQhAAAIQgEAvAoh5vchvVm80+Wwx6d0M85DNVZwV/7NU91LhLfosO2e2ojL+msqWOGTH2/XnrRdVqu9ogVmqvSWYYWMeAtHzSF+aJ354Wo/A0Vjr3wG1n5Xo/aNnlgMCEIAABCAAgTUJHIl2R9dbUmBnXkvanepi8tkJfOdqo7j7RU/rcy3E3h5nbWot5FlbEPSMBGkJAoh5JShiY0UCOWKe3mvKp3dFjSN6B/V699RoHzYhAAEIQAACEPhOYATR7rtHX58Q875YLHsWTT75JnnZcP9qWCQItBbv0vreLq6ifmx1jLCYOlpolhAx1+6ttM4TiJ7dt8+Ot885BGYlcDTG2nsgTWs8N5EPzKdm7VH4DQEIQAACELgmgJh3zYgcFQlEi0MmnxWBD2D6TPhKFzytPr8RtaI+LL9lcwQhz0IeLfTkZ41FpdVJuhaBqK/Tf9aKMa15RiAaX3Utuu7fa3qmSr0nondrKdvPqFAKAhCAAAQgAIFdCbAzb4PIR5NPxLy1Ax8JAn5x0+P8aZ+L+q/81wJutEWU/DlaWCLIrP3MlWpd9OzSd0rRxc7MBKKx1d4B0b30PWd53zCI3kdP321v/KAsBCAAAQhAAAIQEIEfYFibAJPPteN71DotMEb6OfLz7HrUd22BVmJhdlb303sIek/JUU4EEPPoBxCICUSCnX8P6NmJ8tg7Q6neKb5MXNPx1eid9MbecU3cgQAEIAABCECgN4GRf8VWbNiZ17uHNKg/mnxq0ssBgZEJRP3WFmUzLJ6OFpW6zgGBIwKIeUdkuL47gWhMTd8F+mzviaNUdtJyuWwjH5hP5dIjHwQgAAEIQGAuAoh5c8VrSW+jxSGTzyVDvUyjZhfyLBDRws92h1geUgh4AtF4reeBAwK7E4jG0yNRLlfUu8s0ejcd+XDXNvkhAAEIQAACEBiLwOhinmjxa7Zj9Zni3kSTT8S84pgxWIhA1F8lgL3ZTVHItdtmtMiLFqAIerdRblMAMW+bUNPQmwSisfRKSIuep3THnuzmHtH7iflULj3yQQACEIAABCBQioAJjYh5pYgOaofJ56CBwa0/CJwtvK4WbX8YG+hCtAhF0BsoQAO5Ej0DGsM5ILA7gWgczXkv6JmK5kFe1NP9HFEuspPjw+6xo/0QgAAEIAABCJQlgJhXluew1qLJZ86kddgG4diSBKJ+aout2RdL8j9aiKp9d3aFLBl4GvWNAGLeNxx8gMAngWgMvfNuOHvH2LtGec6OyAfmU2fEuAcBCEAAAhCYk4CJZaN7z8680SP00r9occjk8yVUihclcLbIKlpRZ2PRQlCLyKsFZGe3qb4hgWi8pn80DABVDUsgGj/viHlqmPKfvW/sC5ajOVJU9q4PwwLGMQhAAAIQgAAEPglciXlX9z8NVTjxdSPmVQA8kslo8nk0UR3Jb3zZg0DUP22XhC2SVkqtbWmqhSoHBBDz6AMQiAmUEPPMst4pkb10XLZ3j5WL3lfMp4wOKQQgAAEIQGAdAl4wi1p1dT8qU+JaWi9iXgmqA9tg8jlwcDZ3LRIu0sXUTp/1rHLsTSB6JugXe/cJWv+bQCS+pWLbXVayGdn17x3VYfVEee3e3brJDwEIQAACEIDAvARSUa1XSxDzepFvVC9iXiPQVHOLgBZAfsHE+Y9fPPS8sji81ZWWyoyYt1Q4aUxBArWENI23ke30naSmMJ8qGFBMQQACEIAABCYm0FrMO6oPMW/iTpTjerQ41DUOCPQkgJj3W7xLF4z6jJjXs2f2rTsar9mZ1zcm1D4GgUhwKzVWyk707PnxWfXX9GEMyngBAQhAAAIQgEAOgSNxLafs3TxndSHm3aU5WX6+SZ4sYJu4i5iHmLdJV7/VzEhQQMy7hZDMixJoIaTliHpe4OPLl0U7G82CAAQgAIGtCZyJZwYmJ4/lfZrm1IGY95TuJOUQ8yYJ1IZumqBnOx5ssdbqc7oos8+t6o/ay67ZDR8E12TEPAeDUwg4AjZe2jhdU0jTcxjV5+vWOUK7CxCnEIAABCAAgUUI5IhoOXla4EDMa0G5Yx2IeR3hU/XQBNKFmT5zQKAnAcS8nvSpe2QCkbimL4RqHtH8KX1vIOjVjAC2IQABCEAAAu0J5Ah1OXlaeM7qtQXljnVEi0Nd44DA7gSixeHuTGh/XwLReI1Y0Dcm1D4GgWi8ri3mqeV6/q5EPd1nXjVGP8ELCEAAAhCAwFsCOUJdTp63fuSUR8zLoTRxnmgSyqRz4oDiejEC6Q4LduYVQ4uhhwQQ8x6Co9jyBHqJeQZWz2bkg3+PIOoZLVIIQAACEIDAvARyhLqcPC0IIOa1oNyxDsS8jvCpemgC0cKsxU6PoaHgXFcCiHld8VP5wARGGa8jP7ygp3PeIwN3JFyDAAQgAAEIFCBQW8zLtY+YVyCYI5tAzBs5OvjWk0C6ANNnDgj0JICY15M+dY9MIBLReolmqjfyJ32njMwT3yAAAQhAAAIQeE4gV2x7WkOufVavTwlPUi5aHOoaBwR2JxAtxnZnQvv7EojGa30hwwGB2gTU9/xPL6HsqJ3ReN3TR9UdfVmaCnrMt44iynUIQAACEIDAvARyxbanLcy1j5j3lPAk5aLJJpPLSYKHm1UJpIsuduZVxY3xDAIam9N+iZiXAY4sjwmoz0VCma6N1PciH3uKeQZc/KLn1j/Ho7E030khAAEIQAACEPhOIFdEy8333Xr+p1z7iHn5TKfMiZg3ZdhwugGBUReHDZpOFYMSiESBkQSVQbHh1kMC0fzAi1A61zg5wjH6eB09uylLnuURehI+QAACEIAABI4J5IpoufmOazq/k2sfMe+c4/R3o8m6Jp0cENidQLrQ0mcOCPQkEAkCCAA9I7Ju3X5uoHPb5aZUP358tHs9aYwu5omNOHmunqGdqx080z17EnVDAAIQgAAEjgnkimi5+Y5rOr+Ta5/V6znH6e9Gi0PEvOnDSgMKEIgWhwXMYgICjwlE4zUL/8c4KXhAwPczjYNHhxemjvK0uh6N1yOIjFH7xS3y1wQ9pYrBqP5HbeIaBCAAAQhAYAcCuSJabr6nzHLtI+Y9JTxJOT8Zt4kkYt4kwcPNqgTsefBp1QoxDoELAl5ksX6JmHcBjdu3CaifqV9d9S3fH29XUrhAJI6NLoaJb+S3PdtKxXj0dhQOJeYWJqC+rD795uctniMf3tqlPAQgsAeBXBEtN99Tarn2EfOeEp6knCaTfuJok8dJ3MdNCFQjEC2yWFRVw43hDAJePLFx+0pwyTBLFgjcJqCx0I+Rtw0ULuB9sWdjhvE65Wi+p+kMbSkcUswtSCBac6R9/eqzbOjnyTOhctFYoTp1Xff1nuWAAAQgcEQgV0TLzXdUz9X1XPuIeVckJ7+vF1f64uRFNnlQcb8IgfS50GcOCPQkgJjXkz51G4FUgBphzhAt0J8s9q2NrVP5Gr1z/DW1kQMCMxOI1hy+j989z33Gz0S8qE7l54AABCDwhkCu2PamjpyyrF5zKE2cJ1ocjjAxnxgpri9CIFocLtI0mjEpgWi8ZtExaTAnc9v6XjoujjJfSP3SAj13oT9KKHIEvRnbNQpf/OhPIBXz7LnNTSPh7eo5T+s0G2mddt3SUca2/lHDAwhA4AkBxLwn1Chzm0D0kuMFdhsjBRYkYBM6ny7YTJo0EQETVHyfRMybKIATuxrNFdQPR5kv2MLcPxtXi/xRwyG/o/b4tun+rO0blTt+1SfgxxH14buHykfPxpmdNP/RsxO9X3nGzshyDwIQOCNQW8zLtc/OvLMoLXDPv1htojjK5HwBvDRhYgLpBFDPBxO7iQO6gOvRYkNjOAcEahPQ2Ke+Zj9+fBxhzuD9sbnM7ON19Lxb2yzl+a/d87FfkoD6q/VdPbNPj/R5PxqD0mfoKJ/5kebn+TIypBCAwF0CuWLbXbuWP9c+Yp4RWzT1L1Z7wV697BZFQbMg8I2APQ8+/ZaBDxBoTCBdaKhvsthoHASq+yTgF9S9+6H3xcbs2cU8gdYzH83TrI02BvTm/9kpOIHACQHfl9+IearCP/ORLT3/Po+elZzD+6gyK4wjOe0mDwQgcE0gV0CTpTt5r2v+M0eu/byR70/7XJmEQLQ4RMybJHi4WZVAOgnMnQhWdQrjWxOIxmsW8Vt3ie6Nt3EyWky3dM780DhtPystwlOBwdroU8aClj2Oup4Q8P347Zjh34eRLT3//vm4Mx48LfeECWUgAIF5COQKaGrRnbxPCOTaR8x7QneiMv7Fai8vxLyJAoir1QjY8+DTapVhGAIZBPzixfolC/gMcGSpRsBEtGgxXa3SwLD5Yc+F0juL98Dk5aXa9iMHonb6Nus+c7iIHNdGIODXHG/HjFxbynenrjci4AiM8QECEKhHIFdAkwd38j7xONc+Yt4TuhOV8S9DmxAyEZwogLhajUC0aOqxeKvWQAxPRwAxb7qQTeuw+lrOeGdziDuL5RpQWo/Xvr4cTqXb7Ou3uVua9vCrdDuxtxYBGy/UV9+OGf59+NaWp1zLrq+DcwhAYE4CuQKaWncn7xMaufYR857QnaiMf7HaRFAvMg4I7E7Angef7s6E9vcl4BcZ1i81hnNAoCQBPy+4smuiUsnF9FWd0X3zw54LpTXELNlM6+rRdvnh4+Tb7c81ZtTgEMWAaxC4IuD77Nvnxj+Hb22Z3+k7lmfHyJBCAAIikCug3c37hG6uL4h5T+hOVCZ9cWkSqGscENidgJ8o2uJodya0vy+BaLxGzOsbkxVr94LVWf9Sf7Rxsve8wfywsVppjYW4bPo6dH7GqHb/iPxJ/RObGixqtw376xEoJealz/vb8UflvW/2XPPcrNcHaREE3hDIFdBUx528T3zKtY+Y94TuRGXSl5deYG9fihM1H1chcEggXRDpMwcEehLQ2Jz2y55CQk8W1F2XgJ8bRH0sFZHqenNtPV3c6zmpsRBP2616VHfPQz5FfvmxQj729rMnI+oeg4AfV570R+vHvm/r/MkhX47sRWPekzooAwEIrEUgV0BTq+/kfUIp1/6zEfKJR5TpQsC/WO3liJjXJRRUOhgBTfLsmbC0xuJwsGbjzsAEEPMGDs6CrkXzAxsLLdU4OcK42Gq8jkSzkRb+0RhhsbJ0JH8XfGxo0gmBnDHF+mlO+mb8icYM1alnfIQx7QQjtyAAgU4EcgU0uXcn75Pm5NpHzHtCd6Iy0YsVMW+iAOJqNQLRRLJaZRiGQAaBaKHOwjwDHFkeE1D/Olr06t4oi97Ixxq+yWb6blDdIx2Ki35SP/1n3WeuN1LU9vDlql/6Pnp1LltvnvEc+3tEhVZCAAK5BHIFNNm7kze3fp8v1z5inqe24Hm0OGSCt2CgadJtAtHi8LYRCkCgIIFovNaChgMCtQmY+GPpaPOEaLx+s9A/4hmJeaM+g/LrSrAYLY5H3Lm+BoGcPpnTZ0v0W9mw8cynvn5d54AABCBgBHIFNMtfM831BTGvZhQGsB29WEu8JAdoGi5A4BUBP6Gz81cGKQyBlwQ0NltftJTFxkuoFF+CQE8xb7SdeT6gGjMiNjZ+KNV95n2eGue1CPg1h/U7CeTqf2ma9lvladFPVUf6fNTigV0IQGAuArkCWotW5fqCmNciGh3r8C9We3m1eFl2bDJVQyCLQDqR1PNRY6dHljNkgsDHx6+FjI3TliLm0TUg8BEKVjXG63Shr+dQ74rRD7GI3mk2jlg7ajAbnQ3+tSPg1xw5z43vnzpvdaTPeat6qQcCEBibQK6ANlIr2o2cI7V6I1/8i9Vemoh5G3UAmnpIwJ4Hnx5m5sY2BLTY9X2C8x/w+NGfgd7l0ft85/75VJiq8Yw/9aXkwCofrgQ99ZcRfC3ZbmyNQ8CPUTliXtRnW/XPu76OQxlPIACBWgTuinl389fwGzGvBtWBbKbfPmkih5g3UIBwpRuBaNHTzRkqHoKAFhE7iyO0vb9oRwzyY3B30R8JByV53/Wn1qCXM47p/TeKv7U4YLc9gScCWfpc5oiAJVrm10et6izhNzYgAIF6BO6Kc3fz1/AcMa8G1YFs+herTVoR8wYKEK50I2DPg0+7OUPF3QnkLIB9X+E8X3SBFaxq9IG7YpRfvNfwR/OtUQ6xuWqvBIyRfB6FHX48J+DXHHcEsrSv3lmnqK8/6cdPfX1Oh5IQgMBqBBDzVovogO3xLyubvN55SQ7YJFyCQBECmmjaM2Hp3cVhEUcwMgSBaKy0fkGKGEUfGK8P3B2vU8GgdEyfCAq1Bz9EvdqEse8J+PfoHTFP/TSdk12tVdIy3o+c86e+5tgmDwQgsAeB2mJejn125i3e1/zLyiauVy/IxZHQPAj8ImDPg09Bsy+Bs4W+X2TUPvf90Z/Xrhf7v8UqOIzJwT8Ldn5XzNPoZnOiozib7aP0qJyuj3xYu4/apevKwwGBNwR8P3vyTPjnS33y7BnXPd+f79b31tc3nCgLAQisQSBHbHvT0hz7iHlvCE9QNlqgIuZNEDhcrE4gnTRqUsixL4ERxsrIBxbY+/ZJWv5FIBqvzxb6XyXvnaUCwWoilxcwvBDiz5kj3usz5P4i4PvXXXFNVnx59cmzvqhnNR0XcseE9F371QLOIACB3QnkCGgjMWL1OlI0KviSvhivXo4VXMAkBIYk4Bcvdj6kozjVhMAIY2W6wFC/lF8cENidQLpo17ORu3C/wy4S856IEnfqbJ1XY0rE096DSjUWnQkprX2mvjkI+Pfo0+fG21BfPDvSd6bqvBoX0jJXdZzVzz0IQGA9Aoh568V06halL0WbpE3dKJyHQAEC0WLmahJYoFpMDEogmuBr/Gx5jOBDy/ZSFwRyCbQaryMxr/U4kMvkbT6NNxFXzRPtR23nvfiW9D7l/ZpDfevJkT6DZ8+f8qZ9WJ+P+qz3z/q4ngMOCEAAAkbgrph3N7/Vk5te2T//yiO3FvINS4AX17ChwbHOBGwi59POLlF9RwKRkNZ6kh/5cLaQ6YiLqiHQlEC6YNe4fbRgf+NYKiSonqeixBs/WpWN2uvfidb+GqxbtZF62hHwa443z036Lrx6D6bjgz5HP2nfbv2ObxcJaoIABFoRuBLb3vpxZR8x7y3hwcunL0S9yHh5DR403GtCIJ386dng2JfACGNl5MPVImbfiNHynQhE43UNgSkSt3Z4BqN2p8KHYsABgTMCpcQ81XHXVjRGpH3Yf2YtdBZJ7kEAArkErsS2XDtH+a7ss3o9IrfIdf8ytJcYL7BFgkszXhGw58GnrwxSeGoCI4yViHlTdyGcr0ggWqi3EvN2EbHEM+Ls35G6X4N7xa4zhGkx24Gbf4++fW7S9+GVPeu/Z31Y9+QjBwQgAIFZCCDmzRKpSn76F6tNyBDzKsHG7FQEognfDpPtqYLU0Nl04aDxsvWkfwQfGiKnKghkE2g1XusdYHMlS1uPA9lQKmXUOBTNHY2HUsWDuWReAIzlDrz0/Ki9+inRXuuLd+15P8wfpRwQgAAEViPAzrzVIpq0Ry8vPwHTeYkXbFINHyEwHYH0udBnjn0JaFxM+0TrsTLygQXIvn2Sln8RaCnmpfMm1b3jkXJIx0d9Znw67xmeYev3ybln3IUABCAAgSMCV7vh0nJ386fl33xm9fqG3gRlo8UhE4oJAoeL1QlEi8PqlVLBsARGGCsjH1gsD9tlcKwhgWi8rrWTOn0Od34GbYdTJOTZNcWGeeWfD4MX8sQKRn8y4goEIACBEQncFefu5i/ZZsS8kjQHtJU4zH8lAAAgAElEQVROJphQDBgkXOpCwBYiPu3iCJUOQWCEsTIVEdQ3dxYShugYODEEgZZinhqs50516ofj45OFf1+m5xq/agmss8Ugep/AZrYo4i8EILArgbvi3N38d7me2UfMu0tzsvzRhIJvBycLIu5WIdB6cVilERgtRmAEIW0EH4oBxRAEChJgvC4I84UpEzhTIc9/3l3U8/Nu32+Ze7/oeBSFAAQgMDCBM7GthNtn9hHzShAe2IafVNhkiwnFwAHDtWYE7HnwabPKqWg4ApGQ1nqsjHzQGM4Bgd0JeFHExmx2OvXpFeIexcPiolT3d4yPjeFqv87FwLi0fp/06R3UCgEIQGA/AmdiWwkaZ/YR80oQHtiGTSxsMqGUCcXAAcO1ZgSixUizyqloOAIjjJWRD4h5w3UVHOpAIBqvdxSLOqAPqxT7aLzyc02d7zZ+iYn6qj+Mie5xQAACEIDAHATOBLTWLTjzBTGvdTQa18fOvMbAqW4aAjbB9uk0zuNocQIjjJXR4ni3xXDxwGJwCQKIeWOG0e888+9Sf56KW2O2pI5Xng/icx3GWIUABCBQg8CZgFajvjObZ74g5p2RW+DeCAvUBTDShAUJsDhcMKgvmjSCkDaCDy8QUhQC1QgwXldDW8Swxq4oRl7U03x0N0HLi3litOqhdvIzLoNV+x3tgkBNAmcCWs16I9tnviDmRcQWuoaYt1AwaUpRAn6RYedFK8DYVAQiIa314ivygZ15U3UjnK1EIBKKdhOGKqEtajaac9r71dKdxrRdxDyLLemPz7+ROBILxsqiwxzGNiFwJqC1RnDmC2Je62g0ri9aHLZeoDZuMtVBIItAtDjMKkimJQmMMFZGPuy08F2yY9GoIgSi8ZoFahG0xY1oHLsS9XR/l7moiTort9faSIqYV3xAwSAEIPCBmLdxJ4gmVCtPKDYONU2/SSCadN40QfaFCIwwVmpsTvul/OKAwO4EEPPm6wFRzNLxbfX5qN+Zt7L4nMaVz2OJeiv3vflGRjyeicCZiNayHWd+sDOvZSQ61DXCArVDs6kSApcEooUGE55LbMtmGEFIG8GHZQNMw6YmwHg9Z/j0To1i58Ue3V/13at2WVtXFi6tjaRjiXgWj1WfrzlHRbyeicCZiObbkZvPl7lzfmYfMe8OyQnzIuZNGDRcbkLAJjk+bVIxlQxJIBLSWi++Ih/YmTdkd8GpxgQiQYgFauMgvKhOsYpi6N+/Ol8tpmqPtbH1++RFuG4XtTb6VPHmpz0DHwM7X+25ut1BKQCBhwTORDRvMjefL3Pn/Mw+Yt4dkhPmjRaHK08oJgwRLnciEC0sOrlCtQMQGGGsjHxAzBugc+BCdwLReM0CtXtYbjmgeEVfMJvgoFRxXm2Oau1brV0++NZGn/r7nLcjwFjZjvUoNWls1fjif0bxbRc/zsS22gwQ82oT7mw/mjitPKHojJvqJyLgJ512PpH7uFqYwAhjpcZm64uWIuYVDjTmpiTAAnXKsIVOR+OcjXeWKt4rHFpkW5tWFp+tjZauEr8Z+yBj5YxRe+7z0XiquSPr/edc75ZEzLtLjPzZBEZYoGY7S0YINCIQPReahGoShHjSKAiDVRNNiFr3hRF8GCwsuAOBXwRYoK7VEWwniYk/UbrC+9iLeSsvrKP4rdVj52kNY+U8sXrrqR9fomdQ11rPY9+2acTyPYW6HB7szMuhNHGeSLRYeUIxcahwvRGB6JlIX4K8/BoFY6BqIiGt9VgZ+UBfHKiT4Eo3AixQu6GvWrEWoznv5NZjcalG+8X2rG3IYZHOofSZow8Bxso+3FvWqnElinP0HOqa8q48/tRmj5hXmzD2TwlEi0Me6FNk3FyUQPQsHL347DrPyqKdIWhW1D9axz/yATEvCBaXtiMQLVy0oOFYg4DGuSjG9i5WqvFxxphbG1q/T1r2DGujT1vWT11fBKLnaMbn5qtFnKUE/HN25zy1w+c8Aldi3tX9vFqOc13Z56uTY3ZL3Im+8Vx5QrFE0GhEFQJ3Xng+bxVnMDocgRHGSsS84boFDg1CgAXqIIGo7EYUZ/8+1vlMc1iJKHq36GdlQSWNkeLI0YdA9Ayt3Pf6UO5Xq2KZPm+5nzUOcZQncCW2va3xyj5i3lvCg5cfYYE6OCLc24BA9Bzw8tsg8DeaOIKQNoIPN5CRFQLNCLBAbYa6e0UaB6N4+3f26uJY9yDcdMDHxs5vmiB7IQLRs4OYVwhuZzPRHNGet9y0cxOmrf5KUKvZsKu6EfNq0h/AdiRiaDDggMAuBKJnIPelZ/lkg2NtAtEkqfVYGflA31u739G6PAIsUPM4rZJL4kPODhT1C47+BGyu5NP+Xu3pwUhjpXzhpxwD/3w9Pd/zqXjf6iNB7ej6+xq/LFzVgZj3xWrJs2hx2HqBuiRYGjUNgWhi8+Ql6O1w/uPXNv+VOER9ovVYGY3XiHnTDDU4WpGAH2vsWWW3SUXgg5hWjKPYWx/wqc+347neH9ZuS8Wn9rmPgT8fpAtt54aPt4+HP/d5ap/7ejn/PXfuyWG7B6Jyg6+EtsrV/zKPmNeCcsc6ol1JrReoHZtP1RAI/1PenQVCz5cudfed+LQeKxHzGLAgEBPwC04bFxHzYlYrXo3GRusHpH3fkxF/Pa8cfQhEY2UUI66N99y0iEmfXrlGrT2Eu5w6EfPW6F+HrUDMO0TDjU0IRBMbLQJZHOw5kbkzWWq9Ky7qk6192GRYoJmTETgaxydrBu6+IMB7e6539otQU/QFgWisvDPvIe9cz9ndeL3oWtsXTYW19HMNQDl1IObVID+QTcS8gYKBK10IRM+AFgXR9bsvRfKvPemRuNbyQMxrSZu6ZiIQLVDZmTdTBN/7qvGR9/Y879z3EcfCEwLRWMlcdZ7npnasnvQpyvQjgJjXj/0wNUeLw9YL1GFg4MiWBKKJjRaB0fXaL1HszzOhUv9oLRZE47UWrxwQ2J1ANF63fj53j0HP9kdjI+/Tsd+nPfvLznVHY+UIz4qeYY3Z/DxncPRlxhHbKO47Pxsl2m7imqUlbL61wc68twQHLx89+HroOSCwC4E7E5ujBYNscECgNoGo/yHm1aaO/RkIROM4Yt4MkXvno2IcLUj9Nd7P7xi/LR3FiJi8pfq8/AhjJWvP5/E7KxnNEW0s9O9DnUf9QHk55iGQKxgS1Xli+shTBtRH2Ci0EIGzl5+9BK9SBJWFOsTATYn6Kn1v4IDhWjMC0cLEL16aOUJFTQgottF46N/V6hP64ehPwMfFzvt7tacHI4yVrD3r9b2rcdGevyhlvKwXlxqWEfNqUJ3QJgPqhEHD5eIE3rz8VJYDAi0IRP0UMa8FeeoYncAIC9TRGa3in8a8KN5+cao8iLnjRNzHxs7H8W4vT6Jnp/WzEq09W/uwctTtGbubrsxk57axM2/x6EeLQ8SJxYNO80ICd196lj80xkUIVCAQjdeIeRVAY3I6AiMsUKeDNqHDUZztXWwposB4gbXY+HQ8L/fwKHqGWj8zkZjH2rNc/4vmiv7Zi86ZS5bj38JS7q48+YKY1yIiHetgQO0In6qHIvDk5dd6AjQUMJxpTiDqo0zAmoeBCgckMMICdUAsy7gUzVXTBanGR97JY4Y8jZWeV44+BEYYK6PnWc8vRzkCGgujOWP0LDJuluM+oiXEvBGjUtAnBtSCMDG1BIGclx+TjiVCPV0jor6JmDddGKd0WJN9/zNaI0ZYoI7GZAV/1OeieapfkCr2vJPHjraPl52P7fG63o0wVkbPNM9wnT4n1or50U+dWrE6EgHEvJGiUcEXBtQKUDE5PYHoudAEVNf1wwGBHgQQ83pQ37tO9bloPBxNQBlhgbp3Tynb+lwRj/dxWe61rJmA59NadWH3nMAIY2X0TtEzzwEBCFwTuPMrtrKGmHfNdOoc0eKQb0emDinOFyIQTXgKmcYMBB4RiMZrFrOPUFIog0DU3/xiXOcaJ0c4ovGaxeEIkbnvQ06/Y9y7z7VniVHHjZ5MetU9gpAW+cDas1ePoN7VCSDmLR5hBtTFA0zzHhNIJ5/6zAGBngSiRS6L2p4RWbdu39cklEkY04+uK/VzhxH6IGLe/H1R/SqKo38XW1+cv7V7tcDH0M4VS/1o/OC8HQfj71M9ey0P//4wPxDzWkaAumYlcHdXntrJ6nXWaGf6zYCaCYps2xHQ5NImGZa2nvBsB50GnxLwAov1yRGElFOnuTklARv/lB4dfv5wlu+ofMnr5q89F0oZr0sSrmtLsfKxi84VY2JaNw61rEfx5NqPyz7filHr58q/O6yNiHm1nj7s7k4AMW/xHsCAuniAad5jAjbB8OljYxSEQAECiHkFIGLikoDvZ1eZbQ6BmHdFivsRAUS8iMp61/w8ivNxRDyLxQhiXmsf1nvKaNHqBJ7syhMTxLzFe4aftNugzrcjiwed5mURiHZ6ZBUkEwQqEYjGa4kpHBAoSUCLKvWrnL5l4yRiXskI7GHL+o7NPaOU+egafSGKLdfGEfVaC2n2JZDvAzzrazzrtGI8Aoh548WkqEcMqEVxYmwhAn6SYecLNY+mTEgAMW/CoC3uss0hEPMWD3TB5qnPXAl5GutY3BeE3tmUzaFIxxHwfCwQ8zo/IFQPgQsCT3flySxi3gXc2W/bRNwP6kygZo8q/pcgEC02Wk94SrQDG+sQQMxbJ5YrtMT3x95jI+P1HD0qmnP6+afOmYPOEcs7Xmp84GdcBndiWSJvNA7w3Jcgi40nBN4IZU/qu1vmrX+IeXeJT5afAXWygOFuMwLpAkOfOSDQk4AXT6x/agzngEAPAjZ/6L0rT21HzOvRA/LrVF+JYmTjmFLGsnye5ITAzATs3eGf/95fCM3ME98hcEaA1esZnQXuRYtDvh1ZILA04TWBaOHx2igGIPCCQDReswB+AZSijwlYX9Q4OcIiLBqvR/DrMeBFClo/8Yv29Fyx44AABPYhEIl5rD33if+ILX27+23ENplPiHlGYtGUAXXRwNKs1wTSBYc+c0CgJ4FoYYyY1zMie9Zt84ZRhDxFATFvrL4oITUar/x7VTFj/BorbngDgRYE7B3ixwPEvBbkqeOMwKqCHqvXs6gvcI8BdYEg0oQqBFgcVsGK0RcEosUxi+EXQCl6m4DNGUYS8tQIxuvboaxWQEKeX6RH56P1n2owMAwBCPxBwN4jfmxAzPsDExcgUIQAYl4RjOMaYUAdNzZ41peAn2TYeV+PqH13Aoh5u/eAvu23+cKIQgxiXt++YbVHcbD3p6US+/gVaCNGCoH9CNi7xMYEpYwJ+/WDEVs8wu680j4g5o3Y0wr6FC0O+XakIGBMTUsgWpRM2xgcX4JANF5rUswBgZoEtMjyfa9mXU9tR+M1i8OnNO+Xi/j7hbrOmVve57pyCT2f9oxamtvep2WtHl8+t07ylSMQiXmMD+X4YukdgdJi2h1vatSNmHcnAhPmZUCdMGi43IRAuhDRZw4I9CTgBRXrn4h5PSOyft2+z0mwGfWIxCRbuI/q8wp+iXHE3sYnpbrPQn2FaL9vg4lovn/YufrI2TN7VtbuHXmo+34sszqVXpU9ssn15wTKrz1/C8M//+1D//yjz+pP5z7+znOeyfqHUjus3Fc96l9W5/fz7+V+5/md9/u52U7TqP40jz5/5vv35ufnP5h89898iWzufK2GqHbGs2Z9rF7PyC9wr/yAugAUmgAB/gYTfWBAAtFiBDFvwEAt4pL1N4kx6md+UTJaEyNBaWR/R+P3xJ9o/uhFEp2rD3FAwAhEz2naZ6LnVteuyur+Udm0jvTzUVnzm7QsgWjseDpWqNw/f/8V/53Ov/7+NQZ9yXCuHT//+fjrx49f5dzVP04/ff3737HMlUv7UfjZlfv7r9/1Rfl+v2PT6n9+tu2Mj/r9L5t/6T3928Yhk3/b/N2Hvz7+CSGl/uz1WQJbTZHNaNauAzHPSC+afg5S7uE+GzAWxUCzIPAHge8vuusX/h8GuACBwgQ0Nqf9UmM4BwRKE/B9LVogl67vrb1ooT+D32/b3aO8+kbE249NGpeYS/aIzrh1+j6jvuF//L30nabn2N/35XTu+50+p4df58iOL+/LMl6k5Op99jGxGDzh//Ofv7/i/69wZzvkvJj119/BLj2Jcv+Ka2ct1W4/+Sgbdmhnnu9Hn+359OHrvolrHx8/P0zM82V1/tm/VT4R1awd8uP4+Ne2E/M+nI/m72/W358B1S/2SbXHVW14p5bYVstuGiLEvJTIYp/1ENtAaqmucUBgdwKfL1cndO/OhPb3JRCN1+nCp6+H1L4Kgc/Fyb+/Jqnx8Oyndz+Mxusni8NV4lejHRp/Is42d1Sq+3CvQX9um76PRGuMX2LCv7uL1Id8Hl/2qG/5d6PPk17390RUn80+fbddH/PvF+PvY57jiY+dykZi1Pc8SY5MMc/6kBfzUv9y8ngxLy2vz8bh+7s0f2fer12GXswLKvlVRyAYBlm5FBAoIb7JRgk7gXuHlxDzDtGscaPEgLoGCVoBge8E7MXq0+85+ASBtgRswuj75PeJX1t/qG1NAlE/833u6LwnjUhkShfuPf2buW5x9IviKP7irx8OCEQErH9obDk7rG9ZPvW7nLK+f+rcDj+W2bU09Xl82TQfn8sRKLH2tB1r1leOvLN8P/5KfoshU8wzX8/EPO2C+7XLz+3e+8Ofn/987sz76qFfuT53GSZim/l/1jc/+/+FmPfbFr9S+0X9+ZmJckfCnL9/lOd57fdKIubd4zVdbhuk7AWq9GpgnK6ROAyBBwQ0gfTPhc7PXqYPqqAIBG4R8IsO65uIebcQkjmDgPqZ+pXGQKVH5/5+737IeJ0R2AdZPheJboe6jT2Wij3vxgdwKfKNgH+/3V2H+LK+L2pcUj9VHz06lN/Gj7v1Htnk+jkBi4uNIUrvsP8al3KEKb+7zcloJsBd/HM761tnYt7ff//7W25nYp77NVvfR42U/TrvD+1M/XTT+34shP/uwz8+JFg6LdtM/0o/mX2z/y0LHxYlgJi3aGCtWW8HVLNDCoHVCPhJhp2v1kbaMxcBm1Raf1TaW0SZiyDerkrAFuP+2YgWTKu2v3S7xC4abzxfnSsPnEvT38+e72t3xeGjsp/iRcYXsd7GfvTbtzhae94ZR2wX26++cun+19+q++HFtkwxT3X9+hVWXzap0/rPmeB39Wu22t33e3z1Yt7H5z/AuP038xIf9fGX/RPBLyjCpQUIIOYtEMSzJtgA5CdousYBgd0JRIvD3ZnQ/r4EovEaMa9vTKh9DALReH1ncThGK8bwQmNKxDOdJ8J3jHjN6oX1My/s/BJnjrYWuYYqn5W3fqlr/kDM8zTGOvcxt/jdWXuamCc718c7Mc98PRPq9A8mrgQ/L+ZFY6eNud/blL8z7xfHC6Hu9z/g+C4WXvMjx+wEEPNmj+CF/zZI2WCq9M6AemGe2xCYloB/Jux82sbg+BIEEPPGDKPeo5qI24/GCzu3CXrtz+obI/hRu51H9m2M9mm0YMrtQUf16Prd+KrMLIe1z3NMz5kjzhLNcf30QpvvXznPylHZ7yLI939ucTUW+LXQuNTW8czztvjfGVfuiXkfv96NquebIJe5M898/VY2CYXNzc7yaOed/Tfbb3q18+PHD/3zl8/fsf1VS7m/mffzt+CY/E2+pCl8XJAAYt6CQfVNskHKBlOldwZUb4tzCKxEIFrUXE0IV2o/bRmPgE0Y/XitMZyjH4EoJj4+nP/491eH2qdPxutoTlQihnqfPPGnVc/OaTdjTato7FGPngn/Y8/ZVT/Tc+TL6Twqq3x2/erZ8+P4HvT7tjIab+6sPe+JeV+72x79mu2/u+7OhLrP9pz8Kq7fmWf90qfqx6mQpzIm5p3z+Xf3oXbmHYRWAuKv+vibeQeE1r2MmLdubH+17HMAcn/c+HzAWBwIzYPAvwT8S9bOgQOBngRsEWP9UenVwqenv6vXHb0/fWw4by/geeZXC/i0f/oFvbdT6nzEZ1VtvurHuj+i72n8+Dw3Ad8P7/a3SNBDzBu3P/hY2/h6Z7z2Yt63XW5hk79+zVb/qOLzcDviPq8FJ+brmZinv2d3+d9s3T/AkE3/81eyG8+7kSPmffb101+zlQiud7K+WPI1cL46AcS8xSMcTV4R8xYPOs3LIuAnhzbZyCpIJghUIqAJW9ovNSHk6EPAxgXSvqLdEf87i0P1oGg+dGT7yfWRnlWxkT9n7fi9U8Qtfvs8ZtS6EQHfJ+8+v76skKm89e8rW/7Z3wh3t6b6WFmMbq09D/5ZRNQgxf6XiKXd0T7DTTHv264+b+dXX7v3N/OS4icfv3bmnfXhz75+KuZ9/P41X3bmnfBe8xZi3ppx/WzV6wH10xInEFiLgE0wfLpWC2nNbAT8gsP6pcZwjvYEPifPble7xYR0DHHvbPFz1GNSsbxULGX3iT9Hfr65Ho0jaTvlLwcEWhPw4+rd58X3a/l9x5ZfC7Vu8471ed429twS8+w/s/7601DfJLo/cNrOth/pr6A6Me/PX281M1+7+s52s2nHn9pxtnvv8G/mWVUHqfkv20ct/dqpePzly+fzwN/M+0b6f//3f799XvEDYt6KUXVtKjGgOnOcQmAZAtGi7u7kchkYNGQIAn6xYhNgxLx+obEY+FTe2DhB+nvp0YJD6fG6ls/9euvvfhlx8v1X59b2nr5S91oEcvuU8ll/tDKWXhHx70fljWwd2UjLHuXjehkCJdaeJnL9EukOVC7fByLB7tOPgy8vPvuF//XcAEFevi9hUH8LL/fQr/Cmz8T3svbMnP+XWtX46z/u6p9s5Ff/vaoFPyHmLRjU3Zr0OZC53QUalDggsDsBe3n6dHcmtL8vgc8JoxuvEfP6xcSPDTpnN1O/WEQiVa4I0M/rNjWLg1/Upv3WPtN/28Rjx1qsj12tL3w/tefXytrnI35RWf/OPCqfk+eoTq4/IxCtPY/ic1zD16+gqo/8/PnPr3FOdn79/PP1ZwQO+53bnafx77Psz9T2ufqluu/8zbyzXX5/tvdPXz79dG3MmQv+FkD5m3meMWKep8H5lAT8S8xemIeD3pQtxGkIPCMQLQ6fWaIUBMoQiMbrnAlcmdqxkhKwd6ZP0zx8bkMgGq+14Nn90JgRsfF9VmMIrHbvKXXbb+LN1fvK8pmwIq+s/94pa63x70y7lqbq+/Y88BykdOp8tjgbd6XP1p4/f5X7+9c/dvjzzzuonku7P3//E6Dfu9YSG3/pH1Uc/3qr0flsz18nf/ZE9fzr552deb/rOGnnX3/9+vunV7vtvvo5O/MsbkoR8zwNzqck8DkAuZ0elwPflC3FaQjcI+AnGXZ+zwK5IVCWgF+YWJ/UGM7RnsDXxPhr8q9FJ0cfArbgt+dC6e4L84iJ56Nz5nt9+ututfrx8mic9OsR/+z6skfvu7Oy9hwoT9rfdc3KKuVoQ8CY+/Eojc09T36LXbLhf+7Y0O46X1bnuV8HqY/+KntRQL8yq3yPj8DHKxHP1/W7fT+z2+XLrnqOmLdqZDdqV/kBdSN4NHVpAjYB9JMNP8FcuvE0bkgCmoj5/qhzFiD9QpXGQp85+hBgvP7irjEh4uH7q/LwPvtixll9An69of6Z/lj/jPrmnbJpS3xZ1eHrtTqV8jyk5Op9TmMi/q9ErnquYnlxAoh5iwd4h+YxoO4QZdr4hICf5Nn5EzuUgUApAoh5pUiWsWPjgqVaJHL0ISD2FgdLd1ucq73RnM54KBUn5eGAQA8C6nvRs2p99KxvnvXtq36t+0f1XpXtwWn1OqNY7jZerx7jWdqHmDdLpPDzkEC0OOTbkUNc3NiIQDTx26j5NHVAAtF4fbb4GbAJS7lkC1CfLtXAiRoTjde7LA7Vzmhs8P0SwWKizryBq3pvqU/6n9xmvynr6+OZyCVePl8k5rH2LM8Zi9cEEPOuGZFjcAIMqIMHCPe6EfALITvv5gwVQ+DjI1ywawznaE9AAoqNC5ZqccjRh4DYWxws3UHMi/qhtd9S+mWfPkmtEIBATIC1Z8yFq+0JIOa1Z06NhQkwoBYGirllCOy6OFwmgAs2JNp9g5jXL9Amlvi0nzd717zbeC0RL5q/+b4oJhozdhA19+79tB4CcxGIxi525s0Vw1W8RcxbJZIbt4MBdePg0/RTAn5RZOenBbgJgcoEEPMqA75p3sYFS9kBdRNgwew7iXkS56L2Wj+0FBGvYAfDFAQgUIxAtPZkvCqGF0M3CCDm3YBF1jEJRItDvh0ZM1Z41ZZAtFhq6wG1QeA7gWi81qSYow8BE0182scTao3G69UWhzkinjis1m56NwQgsBaBSMxj7blWjGdpDWLeLJHCz0MCDKiHaLixOQG/QLfzzZHQ/IIEtODWjyawuWk0Xtvi/Y4dFvvvAymGNi5Yqlhw9CGwupgXPfvW7yxlMdyn71ErBCBwj0A0njF+3WNI7jIEEPPKcMRKRwIMqB3hU/XQBFZfHA4NfwPnov5li/IW6QaIqzcxilP1SqkgJBA9TyuI1lrgRvM03/d0n4Vw2C24CAEIDEggGtMYwwYM1AYuIeZtEOTVm8iAunqEad9TAn6xZOdPbVEOAimBaOy1flY7lfDB8Z5AGie4vmf61MKKYl7OGKE8HBCAAARmIhCNbSt8+TJTDPB1HwI/9mnqni3VNyHpgoRvR/bsC7T6O4Focfg9B58g8JxANJlNx+JanxGdnsfNl4zi4+9z3o5ANF7PujjUHCxqj+9vGj9mbV+7XkFNEIDAiASi+Q9rzxEjtb5P7MxbP8bLt5ABdfkQ08CHBPzCyc4fmqIYBP4gEI291s9qp4h5f4Tj9gUJKWmc4HobY7ECkfg1m9gV9Sn6WLEugiEIQGAQAtH8BzFvkOBs5gZi3mYBX7G5DKgrRpU2lSCwwuKwBAds1CEQjb3qc/rRPfsp8RlBoE4MU676zNGHwMzjtUQ8LWSj/rbONx0AACAASURBVOSvaUyYTaDs0xuoFQIQGJlANP9BzBs5Yuv6hpi3bmy3aRkD6jahpqE3CfhFlJ3fNEF2CBwSiMbeWgv1/9veGSVdjiJpNlfQm8k91Z5qT/naS+mHGRurGPPK+jo8iE8SSCAJdGT2G7pccJyD4zget7Jkvyoj8cFznYB4qoTrdaZnJcyazIs973SXTUUZ34/yDWd50w8CEIDAWQJ3xj9ndaTfNwiQzPvGOi89S/evwfzryNJLzuQqCbgLVmVXmkHgkIALZkf43kgC5MSAkgOHCtLgkEDJNT7zPEPA+eu3J8BCZ6d3tqvwCW+fxzMrzqgQgMCsBO6Kf2blg973ESCZdx9rRhpEAIc6CCxipyeQL1R6n35STOA1BO7yvSTzxiw5XMdwPSvVJcXemgRze19njEqSeGctgX4QgMDbCTgfOOIfM9/OAf2eJ0Ay7/k1QIOLBHCoFwHSfVkCM10Ol12EhSd2p+9VgkBl2DbPdQLimcvrUpFwhsAM/jqSi27fZ/uJeXCpPWMB9IEABGYh4Pwgfm+W1VtLT5J5a63nJ2eDQ/3ksjPpCgL5gqX3im40gUAVAed7R/ySiF+QVS3HqUbyCypJkp7C2KXT25N5cVGVnWyV4RN4IAABCKxO4K74Z3WOzO86AZJ51xki4WECLsDkX0ceXhSGfwUBdzl8hWIosQQBF8yO8L0k88aZi0vKjBsNyXsEnL8ekRzf08F9F3va7fVsO/H9iL3v9KEOAhCAwNMEnE/EBz69Kt8cn2TeN9d9qVnjUJdaTibTkUC+bOm9o3hEfZzAXb6XZN4YQ4PrGK5npb4tmRf24XTSWRJlfH93wjHGPDOu+qlsWSf1UbnVV8zULsqjC35uu/ce/nbriTHKvnevy5Zu1ENgRQJ3xT8rsmNOEGglwP81WyuxydrjUCdbMNS9jUAE9/niFe8E+LfhX36gO31vacdh2zzXCZRc4zPPMwTe5K/jnHC2ketC37vPk6zXUZKsXMWse7zX+pA8pmSUsuOzvtsqt1httS/rnb5Ot9zviTVybKiDwGoE7ox/VmPHfPoS4Jd5fXki7QECONQHoDPkFARyUK/3KRRHySkION+7dWG9MiF3YXUX2ytjfLWv/IJKuD5nCcFe66ByxH7am2GM5/SQPlHG93frlXWWLleTeSGn5tF4ucz9Sv8UfPLfVr+Qob65/dZ7+Nv8qG/Id300bnzHAwEI9CVwV/zTV2ukrUiAZN6Kq/qxOUVAp6BFZWuQ9zFkTPcjBCKI155Q+ZGpM80bCLhgdoTvzZdW2TEX1D4LLJ657CMZKa0EnL8O27/rib3rdMi2EXv+Tp3KuWdf0Opr8jz0XiNDbXMpvUKfzMzJC2ZqU36v+ihbH+kTfd2axFhq475vHY/2EIDATwJ3xT8/R+QNAp4AyTzPhdqJCOBQJ1osVL2VgAL5XN6qAIMtTeAu35sv8LLlM5ffpRfjxOTgegLawC5K7MjGo7wjCZOTTXns/B6JoTIRNRDFrmjp1aqP+uX5HvkR+bhop/eQoyfX7a1Vbqe+UWrN4/vWp6av2kTJAwEI9COQ97R8S6tP6qcNkr5MgGTel1f/hXMP5xhBR+ufHKnK1v7R/kww9UKEqLQogTM2rf2QyzNy9i4pi+JmWhUE7gxmsw3He9gxz3UCJdf4zPMMgbDpcj1G+163h0sd3nRBDR7Sr1Wv3E/zPvIjWpNoH+NJhiwk9NGf6lyp8aJ/fiT/SI/cR+/SJWRvPVfkb8mkHgIQ+PFLcl97sdUnwRECPQiQzOtBERndCCjwkGO8szwTTHWbOIIgsEMgX2Du3BMaiwBlZ3E+/FW+oMpWwlZ7P87+8dd9KGvdVMK1D9czUlz8M2I/hW45MaW1d+VeoujMHHv0kZ6t51LuJ991ZO9ak2ifmbXMI/crx5N81Wu9Ve6No757a1TTZm8MvoMABDwB+RD5lShr9q2XRi0EzhMgmXeeHT0HEFDgkZ3jXe97AdGAqSISAtUEIkC4ax+4cQhQqpfqUw1dMNt6wa4B5uxfl9+a/rTZJuD2+3ZrvhlJwMU/vX1vyMvJJbf+Zd2IPX2WY/YFrXppXuon3luxn/ybfE3mtqe/GKvUuJKjvvG9dAjZGk/to4y6aLf1qL/ahZxon2XHdzwQgEBfAm6/yrf0HQlpENgnQDJvnw/f3kxAgUkOZu56LwOtm6fOcBDYJBCB+V37wI1DgLK5NJ/+4q5g1tk//vq66cH1OsOeElz8E2vU4wk54cedf1ddjD9Shx7zCBnSt/VcKvvp81ayK/u3GDfz25tL7qcxoiwftQvmes/t83t8v/Xs9d3rtyWPeghA4JiA23etPul4FFpA4JgAybxjRrS4kYALJHNAM/KdoOfGhWaoZgIjbf9Idq8LZfOk6fBqAncGs6WNxlnBc51AyTU+8zxDwMU/PXxvyHDrnOu0n+7c02co57m0Xpw1X/VTci7mXnKO77QeZfujPeIYRh8x1rxzu/guxin/pEP0j/blE3W5jeaoMr53/Uo5fIYABNoIxL7SPlMpX9EmidYQuEaAZN41fvTuTMAFJeEcI9Dq+Rcy5XxVxtg8EHgjgXyByfbac09I1tYefCMXdHqWgAtmw456P1v233ucL8qTP1HJOficFTjfe3U/OZlaa5Xy/TFz1/6qDr2JSu/Wi7Pr5+pC3xwjSv/s71S3VYpplFlW3l+5zR5jrUnuG+OqPuYQY5Tysr7xzgMBCPQjkPeX/MjePu43MpIg8CsBknm/8uDTwwRycDLSOYbDlXyVBDsPLz7DbxJw9loG9pudG78gQGkE9uHmzlZaL9g1+O60/xp9Vmqj8y+XK81vprn0jH/cnslrHO8xXrTLz117Oo/Z8p7n1eprNH/1C1liXsZ/4pDP2egnGS06R1vJE/fW/k5P6VLqnmVr3DyP/D3vEIDAOQLaW9qHUcq3nJNILwicI0Ay7xw3eg0ioIAlO8cy2OwxdA4INRbBTg+yyBhB4E57JUAZsYJryrzLVu60/zVXys8Krp7LU7U94p+4TLp9qTgnyvh+69Lp+oadvOnRXLbmsKWr65f3gObp6kJmjCcZW2Ps1Wt9z8Sa6hvrE48+18iSzuq7pyPfQQACdQScr2z1SXUj0QoC+wRI5u3zmfLbcCbhZM6WCmh6Tz700d+WbAUoCj6iHKFPDtY0FoHO1qqsUR9rfnZPqF8PElt788jOZacqa4L4M/q6AOVItzPj0Gd+As5WYq+MeGT3KkfZ/wjd3yxTPHP5Zn1X1u1q/OP2Y17XeI82e4+TMWpP7+mx9V2O3Vr1EovcL8vTOefqQp/oJxlb+u3Va33P+C711frpc40s6ay+ezryHQQgUEfg7b6ybha0gsAcBD73X3PWwX2lDCdVEyTUmkAOgvYCCgUoWXcFWLVj1bTLwZrG6jnfGh1ocy+BbINa89YybCTsd8+Gt2alPbU1ZsjessE77TV0KHXMl5+t+VH/PQJh06Wt4K/nsoNy/bZ80FyzmlNb53tr9lP4Z9c3r23s1RpZTk5NvzuJa16t59JWP/kx2b4YRH1+1C7k6Akdor5sq+9zKbkaR+tW01e6q20pK49TvqtvK69SDp8hAIGfBGIvam+pfJuv/KktbxCYm8DPU3fueVRrL6fSo1TQUT34RkMFHqGTghHXNLeT/iOcY8iUfJV7ejldqZuLgFtzrf2ZstZeFLDXjhF7oJTtdO+1N8tVjLFLXUfswXJcPs9HwNnKiAvjnfY/3ypc07jc6/GZ5xkCZ+Kf2G9uDXNdeZ7sze6uPb2nw9532Re0+hoxKftlhnvyczvpmHmpbqvU+mo9evStiQM0b427pR/1EIBAPYG8f7XHSt9SL42WEIDAHoHPRaZyKlHGQd/6l/tLxpXLfOnw9gIKBTtZhytjbxlGDtg0Vk1QtCWP+vcTyIG47Lplb8hOcnl0cDs7c2NnmXrP+8TJGWWv5X4NfY7m+f7VR8MRBO6ylTvtfwSnt8qE67tWpjb+iXVza6ezI0qdba0zdHs6xnrTo3m2nktb/XJsoPfgV8rXdyEnP1q3KLdYZa5bfXN9fs/yc73mE7K3nq2+W+2phwAE6gjkPa29WPqMOkm0ggAEjgj8euoetV7gex3e4VxaHUsEIuGgsoyQsxcsbCGLsZ2z25NVjhtjbwVHW+PW1IdMOV+Ve3rVyKTNuwmUa96q7ZY979lnaf/x2e3JkFG2DbvMbWWnKmOvjHicHntzHKEDMucg4Gwl22zPWcjuVY6y/546zyBLPHM5g94r6lgT/5TnWF43vYecsz77zj19Zg3z/EPX8Dd7f5mD+DgfVc47PpdP9JOM/F2uD/alPll2KTd/5/pmm9jrG9+V4+a+8R0PBCDQj0Deu/IL7LN+fJEEgUzgc8k8OZUozzqWHDCFnAgKclCUAbv3GDfrkd/LgCT3z8GH+rSMm2XtvZfz0xz3+vDd3ARKmzw7m1LOlj2XNlazF0vZ6lPKGmmvbg9Kj7PM6LcmARfM4q/nWmudsypj//M8Q8D5Xu2nKGO/uTZauyjDV6vPmVk4+VfkndHhqE+e79F7PrvUNtdprNKXuXM9t1E/lSFT8rdKJzP61/R1OkffrNPWuFt9pTslBCDQTsDtvbf5yvZZ0QMC7yRAMu/kuoRTysFBTUAQbVwwmOVsBTShpus7wjmWcwv99vQ6iZBuLyJQrvkV1cLOs007WaUt19pxlhsy1C/Xx3t8N+IhQBlBdU2ZzlZqzolWGuXeHWn/rbrN3r70K/GZ5xkC5ZkRayH/774r105tr2h/154+q6PzBSWH/DnHdap3PirkinGUjmU+953+0cfx25KXZWz1DXlOl7KvdNcco6zpm+XwDgEI1BNwe935lnqJtIQABLYIfC4yzYf6VcfSIisHOjmgiPrs9OJ968njScZRILMla68+ZEq+yhibZ10CpX1emWlpP06W7CrKln1Yypb9Z3nxPspe817VmC36OxbUrUngLlsp98RI+19zpfys4Oq5PFXr4h9XJ7+ssqd/dntaZ9BTXNy40umozH3VNteV70dtjr6XPLVTqfqjUu1VHrXP36uPyvwd7xCAQF8Czlf29MV9tUUaBOYm8LlkngK8KK86lhZZuW28RxAazi6eHJCqzplVbid5IwKTkCn5Kvf0crpSNxeBcs2vaF8jK2xZ9txqw7LJKKNvOV7Uh+wRjwtQWvUfoRcy30fA2crVM2drlnlPjLT/rfFXrS+5xmeeZwjovHBr4upGxCx37ulnKDMqBCAAgesE8JXXGSIBArUEPheZ5qDv6sUqB5d7snKyIfqUQWZ2euV3eSHzeJrHiERC1lfjxNg86xII+9VaR3nlKe1nS1a0C3tvseFStvpm3eN9lL26Pbi397fmTv36BLJfl33KXnvOvtwTI+2/p94zyNK6qRzlV2Zg8bSOzvdqXXIZ+24vjroyD6fDiD19RUf6QgACEHiawF3xz9PzZHwIvIHAtVv7G2bQqEMOxq5cwsvkx54sXba22mSd9oLQ3E7B64hAUvpqjCj39GpcApq/kEC55ldULA/xK7Jc32yXsv9cF++xV0Y85dxiLOkwYjxkzkvA2crWGXBlluXeHWn/V/ScsW/pV+IzzzMEXPxTrs/oOOWuPf0MYUaFAAQg0IcAvrIPR6RAoIbA5yLTHPydvVhFvyynJnGwd+HPTm8vGHXB7J7cGgNwbbgcOipr15U2fXa2pY2e3WNb42f52it32mveq/IBvee4NXfq5yJwl63caf9zrcA1beF6jV/v3m495IPjXIjvRz9uT98x7uh5IR8CEIBATwLOVxIr9ySMLAj8JPD5ZJ4CsZoy2ih4zGU4rSuPS1A4ebmdxpferv3ZOjfPq3M8qwv97iFQrrnsqrZ0B3fYqPr3mEU5hmRHqf2gMvbKiKfUofccR+iMzGcIOFsZFczK7lWOsv9nSD43qnjm8jltGPmuGGiL9J17eksH6iEAAQi8nQC+8u0rhH4rEfhcMs8FgzlQb30Ph3X1yU5vT57TXQmNqzrk/ncmR/K4vD9HIJIMrbZ/1L6nbYasbP95n9xpr1kHzX9UguY5a2DkHgSyX5et9NwT0vFO+9eYXym1bipj//M8SyDWQH93a+L8/4g9ffe8GA8CEIBATwJ3xT89dUYWBGYl8LlknoLyq2U4qpxQuGIAOUDck5nbSf8RgaS7HO7pdWXu9H0HAbfmsrHWMmylp12GrNL2ywRaqWO0H/HE3Mqxes51hM7IfIaAs5XSbnto5vbuKPvvoe9MMsq9Hp95vkvgrj39XcLMHAIQWIEAvnKFVWQOsxD4XGTqgvOWurgk9b6QZacX71tPmdAIvUckErgcbq3AuvVh0y37wLUN2x1hj6Xdl2Pcaa95r4pBb3+wrpV9a2Z32cqd9v+lFYTrl1a7bq5uT5fnUZ0kWkEAAhBYl4DzlcTK6643M3uWwOeSeTkxEI4lAjH355Ibo4K2rFM4wK0nt1MiYYROIVPyVe7ptaUv9fMQKNc8Pm/9lYd0fI62vZ+QWdq8GyfqZKcqo9+Ip5x7jOd0GjE2Muci4GxlVDAru1c5yv7nWoHr2opnLq9LRcKsBO7c07MyQm8IQAAC+EpsAAL3EfhcMi8H5UcXqzKhN+qClJ1evG89ZWIj5jIikXBncmRrrtTfS6C09aPRs82GHR7tpSN57vvS3rds/U57LXUaNXfHg7q5CJR7BH891/qFtrFm+W9UDDAfmW9q7Pz/1rn0TULMGgIQgMCPf/9nqPLZOSr+gTUEIPDjB8m8AysokxwRzPUO3nKA+NZk3p5eBwj5egICZUKsRuUyWdEroRe65D1REwSUQUP0H/GUc67RbYQeyHw/AWcrvfZInn25d8MmR9l/HvcL76Vfic883yVw157+LmFmDgEIrEAAX7nCKjKHWQh8LjLNSYLai1W0O9Ov1giy04v3rSfroEtG78RijM3lcGsF1q0PG5dNtVxYs+229NsiWe61kHlk43faaznf0K/Wj2zNmfo1CdxlK1fsP2w39MSGf7fBK1x/l0bNCgTcnj46n1aYN3OAAAQg0ELA+UrijBaCtIVAPYHPJfPi8q2/FseiPlFGUq1nAJeTdOEAt57cTvr01EPjukvMnl7qRzkvgXLNa2dS9rtiJ2ftu9RBe7R2Di3tXIAS4/NAoCTgbKXlzCnl7X3WeaAy9tLRU+pX0+dI5mrfi2cuV5sj86knUO6ZsItRe7peK1pCAAIQeBcBfOW71gNt1iZAMq9yfcuEQVx8el3is9OL963nbLJjS95WfTnXCFi56G3RWqM+LiRnL6xl3z0b3qJ1xbbvtFenJ5e5rVX9dn3269pbvc6MTLbV/sNenR2Hjjy/EtC6qeQc/JXP1z65fTNiT3+NK/OFAATWInBX/LMWNWYDgXMEPhe952Cs9RJeXpp6BfZZp71ESG6ny8WIQLKcZ4y1p9c506PXmwiUa96qW3lwt9hLadet+zJ01X5Q2WtvlhzKecZ4I/ZgOS6f5yPgbOWMbR/NvNy7YZPO/qNdjK89UpbRB1v+lXbJKD7zfJfAXXv6u4SZOQQgsAIBfOUKq8gcZiHwucg0B+etF6u46JSJhx6Xn+z04n3rKceOufQYvxwvZGZO8e4uh2U/Ps9LoLzkt86k7B92XGObpU237snQ8057zXtVe+SMzq18aT8fgbtspcb+y/0p21UZ+7Bmv863Cuc1ruF6Xjo9ZyTg9jT7ZsaVRGcIQGAkAecriZVHEkf2lwmQzGtc/QjccgKiR5IrywsHuPXkdrqEjQgk3SVmT68tfamfh0C55mc0LxMGRwd3edgftd/SqdQ99kaPfenGK3WOsUbsQTc2dXMRcLZy1saPZq7zQKXsP2yz3Jdqo1Jtj8b44vdilMsvcmDOfxO4c0/DHAIQgMCsBJyvJFaedTXR++0EPpfMywmxsxer0kmdlSPjyPLifevJuutyMcI5hkzJV8mFb2tV1qgvL/xnZyV7iXLPZkpbvrKH7rTXUu+Y5xXdz3Km3/sJZL+ufXGnv3b7QnrkMmw6dKX8nUPmFO/BiOe7BJz/H7Gnv0uYmUMAAr0IhG966mx3vjLq4u8JnXoxRQ4E3kjgc8m8HJxfuYSXjqqXrHByW085ZsxlRCDpLoF7em3pS/08BMo1P6t5KSds1D15H8a7DvnWd9m/k+fGvVoX+6AcSzpclU3/tQg4W7lyTmzRcXuutFE+//x/sb/KYmsdqF+fwF17en2SzBACEBhN4OpZt1J/JRFHM0c+BJ4g4G/aT2hy05jZOV29WPWSlQPEeN96nkzmxdg86xKIvZDt+cpMy+RCmexydpzHbnmX7LLPKHvNe1VjXvUjV1jT970E7rKVcr/JLin7JfDEcpRfea8Vr69Z7B+dI0ezdXu6tu+RbL6HAAQg0IuAzizKX+MA4vVeFoacNxEgmXdhNcrA7mxQl5Mbe5eF3E4O+uyYe9MOmZKvMubKsy6Bcs2vzDRklbaa5cmmepQxVql7yN3bR1mX1vdyz8dYMT4PBEoCzlZGBZI99hIyfg36t3iU68zneQnks6PGj9+5p+eliuYQgMDTBMoYfOs8+1r9qBjs6fVm/G8T+FwyLzay/mqCtyPzkKwoz8qrleGc89kx9+YVMksHPyo5sqcH391HINY82+HVkffk5XGuvoeed9qr24MxBx4IlATcxT9stffj7L/033yuS9QdcWKv97beZ+XlvVOzN53/r+n37CwZHQIQ+BqBo7Psi9+H/8Zff20nfGO+n0vmzbysdwWSOcCVw4+LKQ8E3kpAdqoy9sqI564EzQjdkXkvAWcrI5JBzl+H/cdY2g9bZfTlr57BvRbEaK0EwubD9lv+tDdcn9gb+blrT+cxeYcABCDQSsDFBfJ14cdWPffDj2ueuYz60p+3MqU9BN5KgGTeW1fG6OWc1Ajn5A6BGJsHAm8kcKe9cpl7owW8U6e7bGXP/p0OZYAbbXggsAKBI3vPtl/zXsZXTn7ZZgWOzAECEJifwN4/6I34h8WniTn/HH6eRN7TK8P4owmQzBtNuKP8J5N5XPg6LiSiuhLYS2Z0HejHjx8uWOAy15vyGvKcrYwKoMvERPmPL06X3Af/vobNMYvffXTshbDvKN2f9oH7rvTtbh+N2tOsJQQgAIGrBFx8LJ+3ku9yvlnzvMqQ/hB4OwGSeW9foaRfBJtyTirLYDM1P/3qnH+MzQOBNxK4017dHlwpIHrj+s6qkwsun/TXSmjo7CjL+J4HAisQyHtvz67z2VGzN53/r+m3AlPmAAEIzEkgYtTyvNfnFeLX7O81ryjDX+Of57RZtG4jQDKvjdejre8KJHOAK8e4FxA/CoXBIfDjx2+BSuyVEY8LGggWRpCeX6azlRGBs/PXe/bvzhH5eWx5frtjBn8TyPtvK37Je6fG9rNM7ZkRe5o1hAAEINCTQPZ18l0qZ/ZhzifHvCLOqfHpPRkjCwJPESCZ9xT5E+O6S9gIZ+Wc/t7l8MRU6AKBbgTutFcXOMwcCHVbBAT9RuAuW2m1/2jv+kQAzAOBlQiEnStuiv1YPnkfxPvR4/Z0Tb8juXwPAQhAYDSB7O+UyFM5Yxzr/DGJvNFWhPw3EiB6f+OqbOikoFTON8oRgaRz+C4Q3lCTagjcSsDZ66jkswseRuzBWwEy2BACzlZGBcz5TFAwWzMptR11ltToQBsIjCaQY6e8B/PZUePH79zTo5kgHwIQ+B6B7PPKuCH7xreTcb5Y83m77ugHgd4ESOb1JjpQXg5I5bRqAtBWlZyzH5UcadWN9hAoCdxpr24PzhQAlez4PI6ACzbx1+N4IxkCewSy75bPzmdHzd7MMkbGYHvz4DsIQAACVwiE/5P/Kkv5xivyR/d1sVXMg3vqaPLIfysBknlvXRmj112BZA5w5ejDefJA4K0EZKcqRx3qLoiouQS+lRt6jSPgbGVEoOz89Sj7H0cLyRAYTyD2pOKo2It579T48bv29HgSjAABCHyZQPZ9iptVjohTerF2Pjj0Dr9e48N76YEcCLyJAMm8N63GgS4KQuVwoxzhvJyT53J4sDh8/RiBO+3VBRJvDnweWxQG/nGXrdxp/ywrBGYnEPtFsZTK2ljK7emQxwMBCEBgNgIRu+b7ZH5/Y1zr/G/oHH4cPzyb9aFvTwIk83rSHCwrB55yuiMcWMiUfJXhRHkg8EYCzl5jr4x4XDAxYg+O0B2Z9xJwtjIqQJafVjnK/u8lyGgQGEMgfHYZT9X48Tv39JiZIxUCEIDATwIuflYcMSpe+Tl6/ZvzvaFn+PEa310/Ei0hMB8BknkTrVkZfIYjG+HEnHPncjiRoXxM1Tvt1e3BNwU8H1v6V0/XBZ/461cvGcp9iEDsxfDn+qvZm87/1/T7EFamCgEITEYgfJgSeGX5hvjWxVIk8iYzMtQdSoBk3lC8fYXfFUg6xx7OlAcCbyVQBiCxV0Y8LqjgMjeC9Pwyna2MCIydvx5l//OvCjOAwHkCd+3p8xrSEwIQgEA7ARdHKK4eEbfUauh8bmsiL+amv9pxy3bR/0kOpT58hkAmQDIv03j5+5PJPC6HLzeOD6vngpBR9uoCCw74DxvfztTvspU77X9nunwFgeUJuD0d+48HAhCAwOwEIpZVAq8sn4hznb9tTeTlOcW94Iy/znfv0IkHAm8jQDLvbSuyo092KHK0ZxzTzhD//spdDnFgR9T4/ikCzl7vTOaN2INPsWTcfgRcIDoqINZ5oHKU/fejgyQIzEfgzj09Hx00hgAEZifg4mnFFaPiF8fM+drQI2Kblpi7vDe39nc8uA+7FaPuSQIk856k3zh26ZTCsbU4tdrhnPOKsXkg8EYCd9qr24N3Bjhv5I9OnoALRvHXnhW1EJiBgPP/I/b0DCzQEQIQWJOAi6nvTOi52OlMIi9Wx/nskFX7bLEgoVdLkHZ3EKi36Du0YYxdAs4pjQgknfPCce0uDV8+TECBfl3FWgAAIABJREFUhsrYKyMeF2SM2IMjdEfmvQScrYxI/Dp/Pcr+7yXIaBB4F4G79vS7Zo02EIDA1wi4uELx9Yg4Rnydj9W4atNS7smrid2jjbt7h04hmwcCbyDw+WRebNRWxxTt81+NQ4jF1li5b4sROIdSO3bLOCFTzlMll8MWgmu0DTttsa9W+9Y+uErrTnt1gUHMgwcCJYG7bOVO+y/nyGcIfImA29MtZ+SXWDFXCEBgbgIR2+oOWJYj4l7nX2Pcq/fPPbk1/jvauPt36BayeSDwNIFPJ/Oyo6pZiNi0bkNH3dGGjrHO9pVurn+NI1L/2jJklo77aH61smk3B4FY79qDKuxF7Z3duEM/25j7voVSlqXxY6+MeNw8Y3weCJQEnK1ctfVyDH2W3ascZf8ajxICXyRw557+Il/mDAEIvIuAi68VZ/SMZ5xvjXEilukRY1+VHzq4O3joGLJ5IPAkgc8m88IJaWPWXHy2HIGcmpyOW0yNk9uW7zU6ODk9nFyps3PeNfqVcvg8J4Fs60eH9d4Bl228POyyjV214SxLY46yV7cHjxjNaQVofZVA3keyy6u27nS60/7d+NRB4CsEnP8fsae/wpN5QgAC7yfgYgzFND3iXxcrhfzwtz3969Vx9jiUd5z3r+o3NPzXv/71iYl+MplXbsiai78cV5RyXiGnlBWfy6fsqzYhJ39X9is/3xVIlnMKHXFU5Wqs+bk87GTrW7MtbUW2HWWWVe6x3O9ojK2xc33eR/FejpfbXnnPc9KYmvMVufRdj4CzlR62XpLKe0k2Ocr+y7H5DIEvEbhrT3+JKXOFAATeT8DFGYo3rsQ1zqdK7ggqW+NFzFQby0u/sgzZPO8iQDLvXevRTRvnkI4uPvF9bNqtduHIttqofmuTR185hC35mrxkqX2Utc5HMmrKM4xq5NLm3QTcIXd0SMsWt9plmXkPZBu7asNZlvQ52ktnVyLPR2Ntzf3sGPRbg8BdtnKn/a+xMswCAucIuD199fw6pwm9IAABCNxLIN9XFf+qPBMHO38a8kbF76K1NW6MXfOEz3f38egfsnneQ4Bk3nvWopsm2RHFRsybcW8Qbfw9B6M2pTPQGHt9a9qEfmoXY+hvRCDpLoc4qD0Lmf+7bL/l+97sZId7B7lrk21sq2/U62/PzrMsjbW33/bmc/RdZqOx9nQ7ksf36xJwtrJl61cpyBZVjrL/q3rSHwIzE7hzT8/MCd0hAIE1Cbh4W3FHS3zjfGnIidjljph6a/zQoWb8aOPu5NE/ZPNA4E4CdWnoOzUaOJY2Xjic2IjazHsXn2ib+22pF/JKhxZ95Zz2nJz6xjh77aSHxoky+vZ+pE8eZ49R7/GRdy8BrXe2P639nj3m/bNnh3kfqJ3G3LJh9YnvQy/1c2SyLOk9yl5DrsZQucfI6UvdNwhof8hOotyz47NU7rT/szrSDwIrEHD+f8SeXoEVc4AABNYkkOPzHN/Ee0087GKj6HsU6/emeVWP8P3uTIi5hGyeZwl85Vd5QflzybzsaLSRYzNuPWoTm/Po0aaWPPXV573+6rvnANQmdNHfiEDSXQ739NqbF9+9n4AOpKyp7Cvvl/x9vKtNjW2oreRlG1Od5MdntQ+br7FxtVdZs+c0XkupPa1xoqzRr2UM2q5BwNlKaes9Zpr3kuxylP1nfWOMK3+1+yY4apye/GJ8yY3yzCPdouRZn8Bde3p9kswQAhCYmYCLOxR/7J3TzodGvziDa2OCntyu6rPHgbig50q1yfpSIi/IHGeo2vhN1VqbeC+QV5twNkdPyJFTirbquydfMuUE9za/5KttlCOcn3NONXPQXCjnJyAb2zuUZY97Nhsksj1JXq7LNhzfa+xam8uyWvu2rpT2tMaJUnNqlUX7tQncZSt32r9WzI2Z90TL+9E+Lzn22G+l/kc6aN65zHqd6Z9l8T4HgbzmsvGwJR4IQAACXyNQnqPyiVG6c9r5z2gb5+eTfnRLr9Ct9slzz+8hmwcCownUW+poTR6Qnzfw1vA5ubDVRvXhkOSYoq5Gftl3b+NLfnYUIxygc9B7emkOlOsQkI3trXtNmyCS7UkHvKvLe63lcM+ypFP0H/HkPa2xYnweCJQEnK3I/su2Vz/LFlWOsn/p6facxj5THumbZfZimGWe2cOhs2Ts+Ukxo5yfwJ17en5azAACEFidwF4skM9q5zt1fr6B0Z5+NfFBtMkxgeYWJfHBvSv8tV/lBV2Sef/5V4EtU8sbfKuN6rWRdTFRX31WO1eq796mV5vsJGqcjBtvr84555o57Mnku7kIyMbyYVzOQPa4Z7PRJ9uT7LWsy59bbS33ld6tMsq5bX3WnDVOlHuMtuRQvz4B+f9sK7L/nrO/0/6ldzlmzLXlz+2jqNvik1nG+1Y76XdUlvKO2pffl/rHZ571CZTrHnv7qi2uT40ZQgACKxMIH+h8o+LjfN7meOht5+aenjV+fo9DyOYZSyCSeF9M5AVVknkHyby4qMv5HJmhnJkclByDPu/1V9+9Da820ifKGgezN677LmTmMeJ9Ty8ng7q5CWj99xJValNjG2orednGSrtWmxaCkq+yZs+1yFdb7WmNE+WIPajxKOcl4GzljG0fEch7SXY5yv6lSzmm6lvKYCF9Ve7xUZsor+65s7JiTUt/FbJqfGALG9q+k8Bde/qds0crCEBgJgJxTobPuuMvn6m173GW3qFbjFH7RFunf+haE3dEGxcjECfUrsC5dl9N4okWybyDZF7e2IK2VWoDRxmP+urzVr+ol/PYczqSr7ZR1jiXvXHddyEzjxHvNXNwsqibk4DWf+9yLXvcs9mYfbYnyct1GktlyG2xaydrlL1qT0vXKDWnOVcarUcRuMtW7rR/sSrHbNmvkhFlKWdv7+c9d3a8GLNcl9r9W/bL+ozyN5kV788TcDZwxRafnxEaQAACqxKIcymfU19+Dxbhv2se5+eD3V58kuWWcU3mXqtDlhfvITPGr9Wh7L/aZ/0K7+tJPK0rybz//D/DCkhZ5k1dfld+jk2mDR/fqW/UHz3qu7fR1SY7hhGBpHNEe3odzY3v5yMgG9tb95o2mrna6uJc2pgOqrKd+u+VpayQUbPn9mRufac9LT2jjPF5IFAScLYi+y/bXv2c7XGk/UvPcs9d2QO1ssp20qW1zOdozXpEm5Jv+XnPT7bqR/v3ErhzT7+XAppBAAJvJ5DPufK8+vLnmjM/1tb5+uAWXGvjnS3OrfFCGfuE3K8+JO/8yn/XItJm3bv4x8aXU9zbwPGd2mmj5kvAUV9t+j1HI/lqG+WeXL/kx7UhM48R73uMjiXSYjYCWv89e9Rhd2Qb2gfRTvaabSzXZRuvZZZlSe8jnWpll+2yfhprj1HZn8/fIaD9ITuJUrbek8Kd9i+9yzFVf6YsZW0xKtud2XelDJ3VW3rLd+U11Drm9R3lb7b0ov4ZAs7/b9nrMxoyKgQgAIGf/2uv8uz6+ueWuCGf8SW3Gr8fbdyZEbKOYo9sw05GzfhZxirvJPP8SpLMq0hUaUPvBexbbbQJ9/rWtInlU7vsVEZs6JCZx2h1PN7UqJ2JgNb/6OCraefaZBvLNpwvz0djZ54aQ+Xefsv9Wt+1zzVOlFn/Vnm0X5eAs5UWm64lk/eS7HKU/Uuncsyre0B67+2nGKNkKn1qy3yGxvue3uUcQ7cYX2uYdYl3nvUJ5DWXzcoe1p89M4QABGYh4HyVfNaXy70z363tFsej+EGy4nzY4l0bN+S4RbIk/2slyTy/4iTzKpJ52khRbj15w+c26ru3adV3T37IlCxt5ihbHVPWbevdXWKOdNuSRf2cBGRjRxeVmnZqk/dAtrE8RtRrP0S/mifL0lij7DXrprGy/jX60uYbBO6ylTvtXytXjhmfzz4tssrAuHXMvCbxfvRoj0fbcp9nWaP8zZF+fH8vgbzmso0rtn+v9owGAQh8iUCcWU/9ufuqztEndAo/fdZXO78f/j/meCQz5qqzwpUh++hx/Y7GPZI56/ck8/zK1d2Wfd/pa/MGPZqMNlNs3ticemJDZadVbrD4fLavxlCZx5HMcjy1vVJmnTVOjcO5MiZ930Wgdt3zQRX2mZ+wGdls+V22MWfD6ldjd1mW9C7Hy3pdec8+Q2M5/a+MQd81CDhbyWdHz1nKFlWOsn/pXO65K3tAe126H8nKXGv8g3QufdXROPF96LbV7qwe0odyPgJ5zWWvo/b0fHTQGAIQgMDfBJyv3DpLZ2Dm5hNnwF6MEPPKcYfOjLIM2XtPGSNF/68+JPP8yn/XIir/m3nC5jZTuSGjjXuu9M3ynJwRzjFk1s4t68f7OgS0/kcXlbAVZ5fqr7I8rLKNuTHywVn2LSlnWRpvay+WfVs/u7k6/Vvl0n49AtmGZZdhq72fO+1fupdjqr6lDBnlfqrZS5lr9K9lWvZr0dW17S3PjUHduwiU9hr7utb+3jUTtIEABCAwjkA+HxX/1Jzv4zS6LtnNSXPbkh5zVpu9MmRvPZw7P8mQzPvJIr+RzDv4f7PNsGKzuU0VGzS+2wvqop/rq/o8zta767835paco/qQWTqdPUdzJI/v5yOg9a9Z9zisop365DJs1snINrZlw5ITMrbaiKzaqow+Ix43zyPdRuiBzPcTcLYyIpjNe2m0/Yt6OWbMK/6ivnx3dY5NzT6P8UO+5hml8y/SU+WZPuq7VeY51OiwJYf6eQjkNZcNhm3xQAACEIDATwKr+ko3L50FEeuUTxl7qK0rt+KIiI3K9uU4X/lMMs+v9KeTebHJ9Ofx/F6ri0lsOvV1G/j3nj/+96KjvlHW9g15bkO39Hc6ubqQWTqOUckRNz51zxMI2261T+2HbN97M1G7LRvO8rbahPw77TV0LvdG6MkDgZLAXbZyp/1rjm7Mcl+0ft7b4xpXZWYb70dPqe9R+5rvsw6cjzXE5m+T11z23WK38xNgBhCAAASOCazsK93c4jyIOKA8D+J+oLNCZbSLP33OZcgun/y93stxyj6rfiaZ51f208k8j+S9tW7zj9jQIVMOQ6VzMO8lhWZfIuDsNfbKiMcd4iP24AjdkXkvAWcroxK/8tMqR9m/CLo9p7Fby2DSuofyWRjvR/1z+9Cvx5PXl/OxB9H3y8hrLjsftaffTwMNIQABCHgCq/tKN784E8p4xCXzdGboDCnLMp4o45do/9WHZJ5f+e9ahOfx6lq3oY8uMWcm5C5qMTYPBN5I4E57dXtQB/Mb2aDTcwRcsLeKv3Z7rgxIjz7HvjnLoxx/bw+Wbc+OWVpSXl/Ox5LOmp+d/+9lT2sSY1YQgMAXCeTzUbHA3jk9IyM3R81V84k5q05l9Isnzg53pkQ7tYl2rs1Xzx2SebKsX0uSeb/yePWnuzZ0OAk5HZXZsbwaEsp9koDsVGXslRGPO7y/eqiO4LuSTGcrI4JZ569H2b/Wpxxzbw+UwWwv3fJ5uHc+ySdEGX32dNX8asq8vnvj18iizRwE8prLrkbs6TlooCUEIAABT+ArvtLNU2dDkCnjn/guxwsRj+RYRn1zO/e9p75+Lck8v8Yk8zyXV9a6Dd3rYpInHDKzQ4n3GJsHAm8kcKe9uoOby9wbreJ5ne6ylTvtX1TLMVW/VZYBba/zJJ9ToZN7atq4fkd1eX17zedoTL5/lkBec9nVlt09qymjQwACEHiOwJd8pZur7s3uu6jLT5wh7n4fMqKt++6r5w7JvGw5P99J5v1k8fq3uzZ0OAkFqipL5/N6WCj4GQLOXkddrt3B/NVD9TMGdnKizlZGJX7lp1WOsn+hKPdczR5wCb2afhrTlZpvlO6MKsfsyT+vrxvb6Uvd3ATymsv2etrU3HTQHgIQgMDfBL7mK918dUaUpYsXIhZyd/yyrz5/1c5I5vmVJ5nnubyy1m30q5chN9GQKYehcvTl0OlBHQRqCNxpr24PcpmrWaXvtXHB3Sr+utxztfM622/LespkXdku79dYj1o9Sznuc15fzkdHaL26bE+KjXra1HrEmBEEIPBFAvl8lK9cPVZ2c9bccxnt3BNniTtjcl+9f/XcIZnnLOfHD5J5nssra90mH7GhQ6Ychsot5/NKUCj1OQKyU5WjLtfusB6xBz+3gAtO2NlKDmaz3Vx9l92rHGX/WqbyjMj6q81WKR2jDD1b+pYyj/TIZ2bvMyyvb2/Z5Tz5/A4Cec1lx3lPv0NLtIAABCDwLIGVfWWOWfJ7EHfz1lmhMtrkfuW72u2Vz67uc6OTzPPsSeZ5Lq+szRcTbfLsBHopHTIlX+Xoy2Ev3ZHzPQJ32qs7qLnMfc/mambsbEX+dHQ52l+Xe66Gh9pE33yWxXvUnXmcLMkp+ffep1n+aN6aE+WzBPKaaw+ftd1nZ8LoEIAABMYRWM1XuvnoDHii/Oq5QzLP71mSeZ7LK2vzBUjOY8SGDpmSrzIcGQ8E3kjA2euoy7U70EfswTdyRqc2As5W5E9Hl6PsXwTKPde6ByKxlhlc0beUFbrEXz4vr8jXnMsyry/nY0lnzc95zWW/vZPEa5JjVhCAwJcIrOQr3Vzk/58qv2RLea4k8zKNn+8k836yeP1bvpzIgbReomomGTIlX+WIy1CNLrSBwBGBO+3V7UEuc0cr9M3vnwwAR/vrcs+1nkPRPu+leD+7j7Zk6eyKslW/GovN6zuad40+tBlPINus7GuEbY2fCSNAAAIQGEcgn4/ylWfP+HFaHksO/y7931R+9dwhmedtlmSe5/LK2rsCSee8wjHzQOCtBMpDdtTl2gUoXz1U32oLb9HL2Uppp6M+j7J/sS3PiDN7IPrkM+3KGZNZx3tcGsR2FItyTLGhXJdAXnPZ14wX1HVXiJlBAAJvILCKryxjHfn9p8s3rPETOpDM89RJ5nkur6zNFx85kjOXqKPJOec16kJ0pAvfQ+CIwJ32ukqAcsSU768TkK3Ib9eW8u25rO2b212fwbaEcs9tt9z/RvpqrmcTI2ItObmMMUY8ecxRY4zQG5nnCeQ1l42NiMHOa0hPCEAAAs8TWMlXKt5RvPJ0+eUzh2Se39sk8zyXV9bKgSiIjHLEppbjyuOEY+aBwBsJOHsddbleKUB541p+Xaf8izL53zf63nLPXTmHynPtrA2UcsTvrLyjftkXvHGNjvTn+3YCec1lX2cT0O2j0wMCEJiZQJyT+mudh/q1lm6cWhmub20dvrKWFO1aCJDM87RI5nkur6x1l5Vwyr2fkKlAVeWo5Ehv3ZH3PQJ32qvbg1zmvmdzo2b8xWResNQ5E+XZxJjbmyFv1JMvK5yPoyi/S66zsREx2LtmjTYQgEAPAvl8b/Ub+bzJ5+XeuzuXsg57feO76H82vnX6npXVgz0y1iBAMs+v47hI149H7QUCdwWSLjly9oJ1Ybp0hUA1gTIocUFMtbCdhi5AaQ3KdsTz1ccJuED7jb63PCOu7oFyX50xg1Kn8Akj2WWdR/mbMxzoM45AXnOdOVxQx/FGMgRWIpDP99Z55b7yPUelO5fcOXkk58w5iq9sXWHa1xAgmecpkczzXF5Z+2Qyzx0Kr4SEUp8j4IKTUfZKgPI587p1wi5gPxNI36F07Dv99RhPsqI8+2QZV+TUjJ/HqmlPm/kJOP8/2s7mp8YMIACBIJDP91a/UfbN58/ee0k+2ip5FzK3+ubxon1rHIKvLMnzuQcBknmeIsk8z+WVtU8m81od+SsBotSSBHJwoiDlzmRejM8DgR4EygD6TBDdQw9kQAACvxNwF9TYszwQgAAEjgjk8/2obfn9lb5ZVo6Xj2LXPGbEIi0PvrKFFm1rCZDM86TadqeXQe1NBJ5M5o1KjtyEjmEWJpCDk9HJPLcHucwtbFw3T60Mnknm3bwADAeBHQLO/x9diHfE8RUEIPAhAvl8b/UbOTl2BVmOl2t0yOPGe+2T+ykuJ1aupUe7LQIk8zwZknmeyytr7woks7OXE25x4q+Eh1JLE5CdqhyVfHYBSk1AtDR8JteNQA72Zcv43m54EQSBSwSc/+eCegkpnSHwGQL5fG+d9JW+eax8v6uNXRWLRFxd2wdfmanz3osAyTxPkmSe5/LK2ieTeaOSI68EjVJTEcjBSQ46RkyCAGUEVWSKQA7YZcsk80SHEgLPEnD+v/Zy+6zmjA4BCDxNIJ/vrX4j970yjxwv1+qQ+4QeNQ++soYSbVoJkMzzxEjmeS6vrH0ymceF8pUmgVI/fvz7XwqV+FA5KvlMgILJjSSQA3bZMr53JHFkQ6CegPP/tZfb+lFoCQEIrEggn++t87vSN4+VE3O1ybzor3ik1t/hKzN13nsRIJnnSZLM81xeWftkMm9UcuSVoFFqKgI5OFHAMcpe3R6sDW6mgoqyjxDIAbtsmWTeI0vBoBD4jYDz/y0X4t8EUgEBCHyGQD7fW/2GS44pRtgqHdgcL7fooDFq412nb21fpzd1EAgCJPO8HZDM81xeWXtXIJmdvRw4F8pXmgRK/YeA7FTlqGSeC1BaAiIWDAJ7BHKwL1vG9+4R4zsI3EfA+X8uqPfxZyQIzEwgn++t88h9FRsclW6MfL9riV01Vq2/w1c6+tRdJUAyzxMkmee5vLLWJfPCYcZfONge75Ihx61yVHLklaBRaioCOTiRvUbZc19of7k9WBvcTAUVZR8hELaUbVh2/IgyDAoBCPxCIM6Ucn+2XIh/EcYHCEDgUwTy+d7qN3LfeFd8u/fu4OZ4uUUH+b0Yr+bBV9ZQok0rAZJ5nhjJPM/llbUukSAHO7oMx8wDgTcSyMHJ6H3g5LcERG/kh07vIZADdtkavvc964Mm3ybgLqi1l9tvk2P2EIBAPt9baVzpm8fK8XJL7Kp4pNbf4Sszdd57ESCZ50mSzPNcXln7ZDKPX+a90iRQauP/AEOBxx1lbXDDYkHgiEAO2GW7JPOOqPE9BO4h4GKwlgvxPVoyCgQg8EYC+Xxv9Rs5OXZlbmeSeblPbbyb9VUsU9v3yvzouzYBknl+fUnmeS6vrHWBpJzk6JIL5StNAqX+Q2C0/e/Jbw3KWDQIbBHIwb5sDt+7RYt6CNxLgAvqvbwZDQIrEcjne+u8rvTNY+XEXG3sqrtnSyyCr8zUee9FgGSeJ0kyz3N5Za0cqi55d5YxNg8E3kggByd37gmNxb82vtEq5tQpB+yyr5YAes5ZozUE5iDgLqi1F+I5ZoiWEIDAKAL5fG/1G7nvFf1yvFyjQ27fEovgK6+sEn23CJDM82RI5nkur6wNZ9765xKA4WRb5UR7Hgi8lcAZe1ayJJdn5NQERG/lhl7vIhD2l+0x3lsC6HfNBm0gsBYBd0ElNlprjZkNBEYRyOd76xhX+uaxcnKuJnbVHTLKFl+Hr8zUee9FgGSeJ0kyz3NZpjYfALoktjjkZUAwEQgUBBSkaF9EyQOBJwk4f00y78kVYWwI/CTgzoyaC/FPCbxBAAJfJZDP91a/kZNjV/jVJvOiXfZ38d7yZH0VY3P3bCFIW0eAZJ6j8uMHt1fPZZlaHOoyS8lEOhNQgJHLzkMgDgJNBHKwL7skmdeEkMYQGEaAeGoYWgRDYHkC+XxXomyvzAm/1r4RP4TsMn7Iyby9sRV/qGxdHHxlKzHa1xAgmecpkczzXJapxaEus5RMpDMBBTIKVqLMwVPn4RAHgUMCOWCXXZbB+KEQGkAAAkMIuHiKM2MIaoRCYDkC7nzXOe/K7Fuc73F9yroyfmjRIWLk+DvzOH3zfM7IpA8ESOZ5GyCZ57ksU+scd9TxQODrBMqgJz7zQOBJAs5fl8H4k/oxNgS+TMBdUImnvmwRzB0C9QQimRU+pPYvJ79a+2qM0j/Vyin71c/y75b4ylZitK8hQDLPU+L26rksU4tDXWYpmUhnAu6XeZ2HQBwEmgiQzGvCRWMI3ErAnRn5wn2rMgwGAQhA4KUEuHu+dGEmV4tknl9AknmeyzK1ONRllpKJdCbgfpnHxawzZMQ1ESCZ14SLxhC4lQDx1K24GQwCEJiUAL5y0oV7udok8/wCkczzXJapxaEus5RMpDMB9yuLzkMgDgJNBGZN5kUSPJLjcd7UPPqf+iihrr249z/t0RjRpzbpLrnRZ092jc60gYCLp2ptEXoQgAAEvkIAX/mVlb53niTzPG+SeZ7LMrXucsilZpnlZSIXCCiRkMsL4ugKgcsEnL+uTZBdHvykgEhmKGlWo6ubY96D8e4SJFGndu77Un3pFH1q9Cr78xkCJQF3QSWeKinxGQIQ+DoBfOXXLWDM/Enmea4k8zyXZWpxqMssJRPpTCBf9pUk6DwE4iDQRMAlut6ciMqJvNqkmfaa2sf84q/cjyW4lmRelkWypSTJ57MEsl3JjmsSy2fHox8EIACBGQlw95xx1d6vM8k8v0Yk8zyXZWpxqMssJRPpTECXsVxyMesMGXFNBGZK5uXkmvZQnDd7j86jKMskW8jLyRL3vcbZ26d7MvZ04zsIHBGQ/coOoyzt9EgG30MAAhBYnQC+cvUVfmZ+JPM8d5J5nssytTjUZZaSiXQmkC/9upx1HgJxEGgiMEsyr0y8af/EebP31LTbapOTh1vJvLynSbLsrQTfnSHg4qktWzwjnz4QgAAEViCAr1xhFd83B5J5fk1I5nkuy9S6yyGXnGWWl4lcIKCkQS4viKMrBC4TcP76KEF2edATArRnInmWE3tHuqrf3hmkS0DIzs9RMi8n8o70yHJ5h0AtAdmm7DjKPVuulUs7CEAAAisRwFeutJrvmQvJPL8WJPM8l2VqcajLLCUT6UwgX/51Oes8BOIg0ERgpmReTmJo/+wl0bTfyiSdA+Tk7SXzJDv67engxqIOArUEsp3JRvllXi092kEAAl8hwN3zKyt97zxJ5nneJPM8l2VqcajLLCUT6UxAl7FccjHrDBlxTQRmSeblRF5MUEmOvUSa2kR59GhP5nG2knmSG31y+6Mx+B4CrQSIp1qJ0R4CEPgiAXzlF1d9/JxcXxcWAAAcOElEQVRJ5nnGJPM8l2VqcajLLCUT6UwgJwGUPOg8BOIg0ERglmReOSntpbuTeRqXRF65InweQcDFU/wD0AjSyIQABGYmgK+cefXQfTYCJPNmW7FGfd3lkF8vNEKk+ZIElMDL5ZITZVLTEHD+ei9B9paJKam2p6vaRHn0aE9meeUv8yRPbeMziZUjsnx/hYC7oBJPXSFKXwhAYEUC+MoVV5U5vZUAyby3rkwnvXConUAiZjkCZTIgkgI8EHiSwKzJPCXUcvKt5Kj9ttdGfSQvJ0pyMk/fRym5epcMSgj0JpBtTTZIArk3ZeRBAAKzE+DuOfsKov9MBLi9zrRaJ3TFoZ6ARpdPENBlLJdczD6x9K+d5KzJPCU59hJ1ahPl0aM9eZTM0/f5nGMPH9Hl+7MEsp05Gz0rl34QgAAEViKAr1xpNd8zF/6beX4tSOZ5LsvU4lCXWUom0pmAkgu6lEXJA4EnCZDM+5u+9qSSdVFb/jJv7zsSek9a8bpju3gKW1t3vZkZBCBwjgC+8hw3eu0TIJnn+XB79VyWqXWXw3wJWmaiTAQCjQSUMMhlowiaQ6ArAeevIyh++6PE+J6uatPyy7wsLyfz3BmWv489TZLl7VYzn37ugupscb6ZoTEEIACBfgTwlf1YIuknAZJ5P1nkN5J5mcaC7zjUBReVKXUhoOQCybwuOBHSgcCsyTztoZx8czjUbi8Bon1ZysrJuq1EXW5DQs+tAHVXCMg2ZcfY2BWa9IUABFYlwN1z1ZV9dl4k8zx/knmeyzK1ONRllpKJdCaQL2R630oSdB4acRCwBGZN5inJUSbgyklqn+21k6wo85MTdXv7NL6TjBiPBwK9CBBP9SKJHAhAYGUC+MqVV/e5uZHM8+yJdD2XZWpxqMssJRPpTCBf+JVk6DwE4iDQRGD1ZJ7Oo9h75a/zIgkXddqX7nvt071kXgDPCb1STtOC0BgCiYDsV3YY5ZEtpu68QgACEPgEAXzlJ5b59kmSzPPISeZ5LsvUxkUmB57xzuVmmeVlIhcIlPsiPvNA4EkCzl9HUPz2Rwm4Gl3zvov2+pOM+D7eyyeSJupbk0AJuWrPmVfS5PMZAtmmsK0zBOkDAQh8gQC+8gurfP8cSeZ55txePZdlanGoyywlE+lMICcPdDHrPATiINBEYNZknvZPnDdHj5uj+qt0ybrWZF60z3uchN7RyvD9EYFsT3u2eiSH7yEAAQisTIC758qr+9zcSOZ59iTzPJdlanGoyywlE+lMQJexXLokQudhEQeBTQIu0VWTINsUeNMXSnLU6hr7LNqqn8q9hFtOztXuU/WR/Np+N2FjmMkIEE9NtmCoCwEIPEIAX/kI9uUHJZnnl5hknueyTC0OdZmlZCKdCeiCn5N5nYdAHASaCMyazGuaJI0hMCkBF0+RIJ50MVEbAhAYRgBfOQztpwWTzPPLTzLPc1mm1l0O9379sMzEmQgEDgjkJJ7eD7rwNQSGEnD+OoJiHghA4HkC7oJKPPX8uqABBCDwLgL4ynetxyrakMzzK0kyz3NZphaHusxSMpHOBPhlXmegiLtMgGTeZYQIgMAwAu7M4Jd5w3AjGAIQmJQAd89JF+7lapPM8wtEMs9zWaYWh7rMUjKRzgT0a7xccjHrDBlxTQRI5jXhojEEbiVAPHUrbgaDAAQmJYCvnHThXq42yTy/QCTzPJdlanGoyywlE+lMwP3KovMQiINAEwGSeU24aAyBWwm4eIp/ALp1CRgMAhCYgAC+coJFmlBFknl+0UjmeS7L1LrLYdTxQODrBPIv8vT+dSbM/1kCzl9HUMwDAQg8T8BdUImnnl8XNIAABN5FAF/5rvVYRRuSeX4lSeZ5LsvU4lCXWUom0pkAv8zrDBRxlwmQzLuMEAEQGEbAnRn8Mm8YbgRDAAKTEuDuOenCvVxtknl+gUjmeS7L1OJQl1lKJtKZgH6Nl0suZp0hI66JAMm8Jlw0hsCtBIinbsXNYBCAwKQE8JWTLtzL1SaZ5xeIZJ7nskwtDnWZpWQinQm4X1l0HgJxEGgiQDKvCReNIXArARdP8Q9Aty4Bg0EAAhMQwFdOsEiouAwBknnLLKWfiLscRh0PBL5OIP8iT+9fZ8L8nyXg/HUExTwQgMDzBNwFlXjq+XVBAwhA4F0E8JXvWo9VtOGXeX4lSeZ5LsvU4lCXWUom0pkAv8zrDBRxlwmQzLuMEAEQGEbAnRn8Mm8YbgRDAAKTEuDuOenCvVxtknl+gUjmeS7L1OJQl1lKJtKZgH6Nl0suZp0hI66JAMm8Jlw0hsCtBIinbsXNYBCAwKQE8JWTLtzL1SaZ5xeIZJ7nskwtDnWZpWQinQm4X1l0HgJxEGgiQDKvCReNIXArARdP8Q9Aty4Bg0EAAhMQwFdOsEgTqkgyzy8ayTzPZZladzmMOh4IfJ1A/kWe3r/OhPk/S8D56wiKeSAAgecJuAsq8dTz64IGEIDAuwjgK9+1HqtoQzLPryTJPM9lmVoc6jJLyUQ6E+CXeZ2BIu4yAZJ5lxEiAALDCLgzg1/mDcONYAhAYFIC3D0nXbiXq00yzy8QyTzPZZlaHOoyS8lEOhPQr/FyycWsM2TENREgmdeEi8YQuJUA8dStuBkMAhCYlAC+ctKFe7naJPP8ApHM81yWqcWhLrOUTKQzAfcri85DIA4CTQRI5jXhojEEbiXg4in+AejWJWAwCEBgAgL4ygkWaUIVSeb5RSOZ57ksU+suh1HHA4GvE8i/yNP715kw/2cJOH8dQTEPBCDwPAF3QSWeen5d0AACEHgXAXzlu9ZjFW1I5vmVJJnnuSxTi0NdZimZSGcC/DKvM1DEXSZAMu8yQgRAYBgBd2bwy7xhuBEMAQhMSoC756QL93K1Seb5BSKZ57ksU4tDXWYpmUhnAvo1Xi65mHWGjLgmAiTzmnDRGAK3EiCeuhU3g0EAApMSwFdOunAvV5tknl8gknmeyzK1ONRllpKJdCbgfmXReQjEQaCJAMm8Jlw0hsCtBFw8xT8A3boEDAYBCExAAF85wSJNqCLJPL9oJPM8l2Vq3eUw6ngg8HUC+Rd5ev86E+b/LAHnryMo5oEABJ4n4C6oxFPPrwsaQAAC7yKAr3zXeqyiDck8v5Ik8zyXZWpxqMssJRPpTIBf5nUGirjLBEjmXUaIAAgMI+DODH6ZNww3giEAgUkJcPecdOFerjbJPL9AJPM8l2VqcajLLCUT6UxAv8bLJRezzpAR10SAZF4TLhpD4FYCxFO34mYwCEBgUgL4ykkX7uVqk8zzC0Qyz3NZphaHusxSMpHOBNyvLDoPgTgINBEgmdeEi8YQuJWAi6f4B6Bbl4DBIACBCQjgKydYpAlVJJnnF41knueyTK27HEYdDwS+TiD/Ik/vX2fC/J8l4Px1BMU8EIDA8wTcBZV46vl1QQMIQOBdBPCV71qPVbQhmedXkmSe57JMLQ51maVkIp0J8Mu8zkARd5kAybzLCBEAgWEE3JnBL/OG4UYwBCAwKQHunpMu3MvVJpnnF4hknueyTC0OdZmlZCKdCejXeLnsPATiINBEgGReEy4aQ+BWAi6eIpl36xIwGAQgMAEB5yv5FfMEC/dyFUnm+QUimee5LFOLQ11mKZlIZwI5iaf3uJhxOesMGnHVBLaSedhkNUIaQmAYAffLvNiz7M9hyBEMAQhMSMDdPfGTEy7ky1QmmecXhGSe57JMrbsc8q8jyywvEzlBIAIKdylTQi++I+g4AZYulwg4Xy2bjBK/fQkvnSFwiYC7nOb9yZlxCS+dIQCBhQg4f0kMs9ACPzQVknkePMk8z2WZWhzqMkvJRDoQiGBiL5Gny1m0IfDoABwRhwTCzuJPtrdXhj/HLg+R0gAC3QjEfqs5M2LfRluSet3QIwgCEJiUAHfPSRfu5WqTzPMLRDLPc1mmFoe6zFIykYsEai9kOZkSfXggMIpAbRIv26SSBqN0Qi4EIPA3ARc/lXux/BxnBgk9LAgCEPgyAec7+YfIL1tEn7mTzPMcSeZ5LsvU4lCXWUomcpFAeemq/XxxWLpDYJOA8881dhn9eCAAgbEEzvwDUOxfLq1j1wXpEIDAuwm42IZ/5Hj3ms2gHck8v0ok8zyXZWrdLz8INJdZXiZSQSACiLOXsriY8UuLCsg0aSbgfHNNIk9t8OPNyOkAgWoC7jKqvVdTcnGtRk1DCEBgMQLOfxKzLLbID0yHZJ6HTjLPc1mm1jnUqAunyh8MvmADVxJ5urSFjC+wYo73+QTZ1pWS9bpvvWD9HdYubjqzT7GZ79gMa81aYwM/bcDF3cGHBwJXCJDM8/RI5nkuy9T2CkrPBLL0+aPqP2oPJzhhA9gANoANYAPYADaADWAD2MCKNkAyb5nUwmMTIZnn0ZPM81yWqSWZR1CwYlDAnLBrbAAbwAawAWwAG8AGsAFs4P02wH96YJnUwmMTIZnn0ZPM81yWqnU/d+bge//BxxqxRtgANoANYAPYADaADWAD2AA2MLMN8Mu8pVILj0yGZJ7HTjLPc1mqll/nEQDMHACgO/aLDWAD2AA2gA1gA9gANoANzGkD/DJvqdTCI5Mhmeexk8zzXJarjYQefzD4og20/DJ1L/H9RXbMeZzPcBeSsFXHfMuGt9o7GdSNW0vYrsV2a79trbPby1G31Z76teyF9WQ9sYF9GyCRt1xa4ZEJkczz2EnmeS7UQgACixDYupi5C1gEZK4+ZPBAoBeBCGy37KwMeuPzlg330gc5EIDATwLxPwdz+zPOh/LZ2svRnwcCEIAABCAAgT4ESOZ5jkQbngu1EIDAIgT2LlvuwlbWRSKlTLAsgoZpPEhgK2EQ9lb+lTYZn11i4cHpMDQEliKwlUCv2ZuxPzkzljIHJgMBCEAAAg8TIJnnF4BknudCLQQgsBgBlxCpqeNStpghvGg6W78EPbJLEnkvWkRUWZbAVkLvaH/yH3pf1iSYGAQgAAEIPESAZJ4HTzLPc6EWAhBYjMCZi1n04YHAKAJbv84jWTCKOHIhUE/gTLI9zgz+AaieMS0hAAEIQAACNQRI5nlKJPM8F2ohAIEFCcTlrCapF2349dOCBvDCKUVCrzZpEO341c8LFxGVliVQe2ZEAj7akshb1hSYGAQgAAEIPEiAZJ6HTzLPc6EWAhBYlEBcto4SelzIFl38F0/rKKEX3/NAAALPEODMeIY7o0IAAhCAAASCAMk8bwck8zwXaiEAgYUJRLLO/U8Zo55E3sIL//Kpyf5c+XLVUQ8CyxNw+1J1y0+eCUIAAhCAAAQeJEAyz8Mnmee5UAsBCCxOwP3SYvEpMz0IQAACEIAABCAAAQhAAAJTESCZ55eLZJ7nQi0EILA4AffLvMWnzPQgAAEIQAACEIAABCAAAQhMRYBknl8uknmeC7UQgMDiBNwv8+J/MsUDAQhAAAIQgAAEIAABCEAAAu8gQDLPrwPJPM+FWghAYHEC/DJv8QVmehCAAAQgAAEIQAACEIDA9ARI5vklJJnnuVALAQgsTsD9Mm/xKTM9CEAAAhCAAAQgAAEIQAACUxEgmeeXi2Se50ItBCCwOAF+mbf4AjM9CEAAAhCAAAQgAAEIQGB6AiTz/BKSzPNcqIUABBYn4H6Zx38zb/FFZ3oQgAAEIAABCEAAAhCAwFQESOb55SKZ57lQCwEILE6AX+YtvsBMDwIQgAAEIAABCEAAAhCYngDJPL+EJPM8F2ohAIHFCbhf5i0+ZaYHAQhAAAIQgAAEIAABCEAAAgsQIJm3wCIyBQhAoJ0Av8xrZ0YPCEAAAhCAAAQgAAEIQAACdxLgl3meNsk8z4VaCEBgcQLul3n8N/MWX3SmBwEIQAACEIAABCAAAQhMRYBknl8uknmeC7UQgMDiBPhl3uILzPQgAAEIQAACEIAABCAAgekJkMzzS0gyz3OhFgIQWJyA+2Xe4lNmehCAAAQgAAEIQAACEIAABKYiQDLPLxfJPM+FWghAYHEC/DJv8QVmehCAAAQgAAEIQAACEIDA9ARI5vklJJnnuVALAQgsTsD9Mo//Zt7ii870IAABCEAAAhCAAAQgAIGpCJDM88tFMs9zoRYCEFicAL/MW3yBmR4EIAABCEAAAhCAAAQgMD0Bknl+CUnmeS7UQgACixNwv8xbfMpMDwIQgAAEIAABCEAAAhCAwFQESOb55SKZ57lQCwEILE6AX+YtvsBMDwIQgAAEIAABCEAAAhCYngDJPL+EJPM8F2ohAIHFCbhf5vHfzFt80ZkeBCAAAQhAAAIQgAAEIACBBQiQzFtgEZkCBCDQToBf5rUzowcEIAABCEAAAhCAAAQgAIE7CfDLPE+bZJ7nQi0EIHATgfg13BN/Lpn3z3/+8xFd+EXgTcbGMBCAAAQgAAEIQAACEIDAVARI5vnlIpnnuVALAQjcQCCSZy6p9sW6+J/9ktS7wegYAgIQgAAEIAABCEAAAhCYhgDJPL9UJPM8F2ohAIGBBCJp5f6bdV9M4uU5k9AbaHSIhgAEIAABCEAAAhCAAASmI0Ayzy8ZyTzPhVoIQGAggUjm5SQW73/8Lw9+nTfQ8BANAQhAAAIQgAAEIAABCExFgGSeXy6SeZ4LtRCAwEACJPN+Ju9yIpNf5g00OkRDAAIQgAAEIAABCEAAAtMRIJnnl4xknudCLQQgMJhAJPT+8Y9//Pt/bkv5Nwd+lTfY6BAPAQhAAAIQgAAEIAABCExFgGSeXy6SeZ4LtRCAAAQgAAEIQAACEIAABCAAAQhAAAIPEiCZ5+GTzPNcqIUABCAAAQhAAAIQgAAEIAABCEAAAhB4kADJPA+fZJ7nQi0EIAABCEAAAhCAAAQgAAEIQAACEIDAgwRI5nn4JPM8F2ohAAEIQAACEIAABCAAAQhAAAIQgAAEHiRAMs/DJ5nnuVALAQhAAAIQgAAEIAABCEAAAhCAAAQg8CABknkePsk8z4VaCEAAAhCAAAQgAAEIQAACEIAABCAAgQcJkMzz8EnmeS7UQgACEIAABCAAAQhAAAIQgAAEIAABCDxIgGSeh08yz3OhFgIQgAAEIAABCEAAAhCAAAQgAAEIQOBBAiTzPHySeZ4LtRCAAAQgAAEIQAACEIAABCAAAQhAAAIPEiCZ5+GTzPNcqIUABCAAAQhAAAIQgAAEIAABCEAAAhB4kADJPA+fZJ7nQi0EIAABCEAAAhCAAAQgAAEIQAACEIDAgwRI5nn4JPM8F2ohAIGJCPz5558/nvz7xz/+MREtVIUABCAAAQhAAAIQgAAEIDAHAZJ5fp1I5nku1EIAAhMQiATeH3/88Yq/0IUHAhCAAAQgAAEIQAACEIAABPoRIJnnWZLM81yohQAEXk4gfg33lkSe9OAXei83GtSDAAQgAAEIQAACEIAABKYiQDLPLxfJPM+FWghA4OUE3vSrPCXz+HXey40G9SAAAQhAAAIQgAAEIACBqQiQzPPLRTLPc6EWAhB4OYG//vrrdb/MC514IAABCEAAAhCAAAQgAAEIQKAPAZJ5niPJPM+FWghAYAICkTx7098EyFARAhCAAAQgAAEIQAACEIDANARI5vmlIpnnuVALAQhAAAIQgAAEIAABCEAAAhCAAAQg8CABknkePsk8z4VaCEAAAhCAAAQgAAEIQAACEIAABCAAgQcJkMzz8EnmeS7UQgACEIAABCAAAQhAAAIQgAAEIAABCDxIgGSeh08yz3OhFgIQgAAEIAABCEAAAhCAAAQgAAEIQOBBAiTzPHySeZ4LtRCAAAQgAAEIQAACEIAABCAAAQhAAAIPEiCZ5+GTzPNcqIUABCAAAQhAAAIQgAAEIAABCEAAAhB4kADJPA+fZJ7nQi0EIAABCEAAAhCAAAQgAAEIQAACEIDAgwRI5nn4JPM8F2ohAAEIQAACEIAABCAAAQhAAAIQgAAEHiRAMs/DJ5nnuVALAQhAAAIQgAAEIAABCEAAAhCAAAQg8CABknkePsk8z4VaCEAAAhCAAAQgAAEIQAACEIAABCAAgQcJkMzz8EnmeS7UQgACixP466+/fri/xafN9CAAAQhAAAIQgAAEIAABCExDgGSeXyqSeZ4LtRCAwKIEIoH3z3/+88cff/xh//78889/J/kWnT7TggAEIAABCEAAAhCAAAQgMA0Bknl+qUjmeS7UQgACCxKIRF4k67YSeaonobfg4jMlCEAAAhCAAAQgAAEIQGA6AiTz/JKRzPNcqIUABBYksPeLPCXyVEZbHghAAAIQgAAEIAABCEAAAhCAwNsIkMx724qgDwQgMIwAybxhaBEMAQhAAAIQgAAEIAABCEAAAjcRIJl3E2iGgQAE3kEgEnrxP6Pd++NXee9YK7SAAAQgAAEIQAACEIAABCAAgd8JkMz7nQk1EIAABCAAAQhAAAIQgAAEIAABCEAAAhB4JQGSea9cFpSCAAQgAAEIQAACEIAABCAAAQhAAAIQgMDvBEjm/c6EGghAAAIQgAAEIAABCEAAAhCAAAQgAIGHCfD/ZusXgGSe50ItBCAAAQhAAAIQgAAEIAABCEAAAhCAwIMESOZ5+CTzPBdqIQABCEAAAhCAAAQgAAEIQAACEIAABB4kQDLPwyeZ57lQCwEIQAACEIAABCAAAQhAAAIQgAAEIPAgAZJ5Hj7JPM+FWghAAAIQgAAEIAABCEAAAhCAAAQgAAEIvI4AybzXLQkKQQACEIAABCAAAQhAAAIQgAAEIAABCEDAEyCZ57lQCwEIQAACEIAABCAAAQhAAAIQgAAEIACB1xEgmfe6JUEhCEAAAhCAAAQgAAEIQAACEIAABCDwbQL89/K2159k3jYbvoEABCAAAQhAAAIQgAAEIAABCEAAAhB4gADJvG3oJPO22fANBCAAAQhAAAIQgAAEIAABCEAAAhCAAAReRYBk3quWA2UgAAEIQAACEIAABCAAAQhAAAIQgMC3CfCrvP31J5m3z4dvIQABCEAAAhCAAAQgAAEIQAACEIAABG4iQCLvGDTJvGNGtIAABCAAAQhAAAIQgAAEIAABCEAAAhCAwCsIkMx7xTKgBAQgAAEIQAACEIAABCAAAQhAAAIQ+DYBfpVXt/4k8+o40QoCEIAABCAAAQhAAAIQgAAEIAABCEBgEAESefVgSebVs6IlBCAAAQhAAAIQgAAEIAABCEAAAhCAQEcCJPHaYZLMa2dGDwhAAAIQgAAEIAABCEAAAhCAAAQgAIGLBEjknQNIMu8cN3pBAAIQgAAEIAABCEAAAhCAAAQgAAEIVBL4n//748f/+X//+vHf//3flT1otkWAZN4WGeohAAEIQAACEIAABCAAAQhAAAIQgAAEuhD4859//fjzr79+/Nd//VcXeV8WQjLvy6vP3CEAAQhAAAIQgAAEIAABCEAAAhCwBPQ/AY1S77bhpJUrzmnSpWhWm2ReMzI6QAACEIAABCAAAQhAAAIQgAAEIPBlAkrw1ZTBqWzn6so2+XNP1iGXZ24CJPPmXj+0hwAEIAABCEAAAhCAAAQgAAEIQOAjBJSIU1kzbSUFa9rSZg4CJPPmWCe0hAAEIAABCEAAAhCAAAQgAAEIQAACvxBQom6r/KUxH5YhQDJvmaVkIhCAAAQgAAEIQAACEIAABCAAAQhAAAKrEyCZt/oKMz8IQAACEIAABCAAAQhAAAIQgAAEIACBZQj8f/51DNwfMuvOAAAAAElFTkSuQmCC;" vertex="1" parent="1">
          <mxGeometry x="70" y="50" width="900" height="490.13" as="geometry" />
        </mxCell>
      </root>
    </mxGraphModel>
  </diagram>
</mxfile>
